<svg version="1.1" viewBox="0 0 300 300" xmlns="http://www.w3.org/2000/svg" fill="#fff">
	
	<g transform="translate(100,100)" id="g111261">
		<path id="operations" d="m 43.0067,0.999999 c -0.201461,-2.6178e-4 -0.430954,0.0260999 -0.710192,0.0705587 -2.64482,0.421012 -3.66302,3.06479 -1.9598,5.08894 0.728674,0.86598 1.17085,1.07372 2.28448,1.07372 2.96096,0 4.1726,-3.164 2.03139,-5.30522 -0.689061,-0.689058 -1.04149,-0.927154 -1.64587,-0.928005 z m 17.2169,5.9106 c -0.499039,-0.00183 -1.0195,0.169516 -1.51549,0.516922 -0.987247,0.691493 -1.02632,2.34773 -0.07772,3.29634 0.908251,0.90825 2.02427,0.885857 3.032,-0.06084 0.992854,-0.932742 1.03602,-2.15397 0.109418,-3.08057 -0.44457,-0.44457 -0.982632,-0.669665 -1.54821,-0.671846 z m -12.7507,9.04895 c -0.484018,0 -1.0589,3.30102 -1.0589,6.07984 0,2.56461 0.755052,7.75883 1.35443,9.31686 0.241745,0.628414 0.369606,0.704986 0.518457,0.310359 0.108619,-0.287963 0.516872,-1.3966 0.907554,-2.46394 1.39845,-3.82058 1.41587,-3.81136 3.56016,1.98281 l 1.92197,5.19325 -2.47314,1.22814 c -4.79961,2.38316 -8.79244,5.57139 -12.0523,9.62364 -4.53621,5.63883 -6.70617,11.0819 -7.53602,18.9042 -0.225082,2.12166 -0.259433,2.18171 -1.2445,2.18171 -0.667629,0 -1.01288,0.178461 -1.01288,0.523568 0,0.395585 0.426952,0.523569 1.74557,0.523569 1.31862,0 1.74506,-0.127984 1.74506,-0.523569 0,-0.287963 -0.228286,-0.523568 -0.507207,-0.523568 -0.552658,0 -0.497615,-1.64777 0.192249,-5.75926 1.71501,-10.2212 8.73547,-19.3621 18.735,-24.394 2.29656,-1.15566 2.55953,-1.21819 2.76152,-0.658039 0.122793,0.340521 0.666582,1.78646 1.2082,3.2135 0.541619,1.42704 0.947717,2.62517 0.902952,2.66233 -0.04476,0.03717 -0.709237,0.388022 -1.47714,0.779727 -1.86816,0.95295 -4.07012,3.30852 -5.28733,5.65649 -0.899837,1.73578 -0.995252,2.25408 -0.995496,5.41004 -2.41e-4,3.11047 0.105423,3.70535 0.969932,5.46577 2.04081,4.15575 5.95194,6.77075 10.7255,7.17095 1.74675,0.146442 2.34139,0.306015 1.95264,0.523569 -0.777939,0.43536 -0.698799,0.976068 0.143165,0.976068 0.517674,0 0.940667,0.527862 1.60701,2.00684 l 0.903976,2.00736 -1.49043,2.87963 c -0.819938,1.5838 -1.58829,2.87963 -1.70722,2.87963 -0.118934,0 -0.730827,-1.57096 -1.36005,-3.49063 -1.0991,-3.35319 -1.75914,-4.29527 -2.75692,-3.9375 -0.730638,0.261978 -0.496304,1.70481 0.824723,5.07923 1.94128,4.9588 3.91848,10.4864 5.37732,15.0327 0.75113,2.34082 1.66875,4.497 2.11677,4.9739 0.434971,0.463003 0.995312,0.841595 1.24501,0.841595 0.667255,0 0.329317,-1.46603 -1.77574,-7.70935 l -1.83454,-5.44072 2.77941,-8.66548 1.26188,2.61784 c 1.12452,2.33263 1.37797,2.6293 2.32692,2.72215 0.720621,0.07051 1.27054,-0.122976 1.70109,-0.59873 0.616363,-0.681074 0.613366,-0.78768 -0.09663,-3.39962 -0.403127,-1.48301 -0.692098,-2.73718 -0.642192,-2.78708 0.04991,-0.04991 1.79941,1.04015 3.8874,2.42253 l 3.79638,2.51354 1.46231,4.0142 c 1.58603,4.35264 3.49329,8.3771 3.96971,8.3771 0.164094,0 0.390684,-0.569488 0.503628,-1.26546 0.157181,-0.968613 -0.08245,-1.97165 -1.02157,-4.27598 -0.674781,-1.65572 -2.47767,-6.46573 -4.00653,-10.6892 -3.50285,-9.67657 -3.62633,-9.94781 -4.51578,-9.94781 -1.22207,0 -1.18382,0.981872 0.177932,4.57765 0.723711,1.911 1.24668,3.54366 1.16218,3.62817 -0.0845,0.0845 -1.47937,-0.403201 -3.1,-1.08395 l -2.94661,-1.23785 -0.875341,-2.72113 -0.875342,-2.72061 1.79159,-1.75273 c 0.985286,-0.964118 2.24201,-2.67364 2.79322,-3.79894 0.889161,-1.81522 1.00237,-2.42006 1.00368,-5.36198 0.0013,-2.86605 -0.124997,-3.58562 -0.930562,-5.3042 -1.18894,-2.53644 -3.61806,-4.96607 -6.15449,-6.155 -1.75614,-0.823173 -2.43623,-0.935864 -5.82061,-0.964309 l -3.83166,-0.03221 -3.21913,-8.85823 c -3.2211,-8.86394 -3.42143,-9.89018 -1.75784,-8.99986 0.363286,0.194427 1.27485,0.908658 2.02576,1.58707 0.750916,0.678406 1.36516,1.12847 1.36516,1.00061 0,-0.429251 -1.13654,-2.44949 -2.56569,-4.56077 -1.40991,-2.08286 -5.91909,-6.80639 -6.49757,-6.80639 z m 27.7103,2.5524 c -0.835699,-0.0035 -1.53632,0.978055 -0.829325,1.82993 0.542729,0.653948 1.35044,0.534754 1.8601,-0.274568 0.292743,-0.464855 0.247164,-0.737593 -0.197362,-1.18212 -0.26141,-0.261411 -0.554847,-0.372069 -0.833414,-0.373247 z m -51.1768,2.34634 c -0.586099,-0.0099 -1.19194,0.201553 -1.67655,0.686161 -0.933805,0.933811 -0.880229,1.94367 0.158503,2.9824 0.964089,0.964092 1.30531,1.02909 2.39492,0.455568 0.98432,-0.518108 1.2742,-0.973848 1.2808,-2.01452 0.008,-1.26571 -1.03876,-2.09061 -2.15768,-2.10961 z m 51.0827,5.31903 c -0.7252,-0.01178 -1.48726,0.335694 -1.99764,1.11463 -0.599573,0.915072 -0.446379,1.93422 0.421311,2.80191 0.694629,0.694627 2.18249,0.668519 2.97882,-0.05215 0.374359,-0.338791 0.638612,-1.05685 0.638612,-1.73688 0,-1.32548 -0.981188,-2.11027 -2.0411,-2.12751 z m -44.4527,10.4259 c -0.758918,-0.01479 -1.1669,0.696087 -0.841085,1.54514 0.126146,0.32873 0.525025,0.503673 0.997032,0.436648 0.576876,-0.08192 0.787398,-0.345053 0.787398,-0.984759 0,-0.639705 -0.210522,-0.902329 -0.787398,-0.984247 -0.0536,-0.0076 -0.105352,-0.01181 -0.155947,-0.01277 z m -10.1227,3.14141 c -0.758918,-0.01479 -1.16638,0.696087 -0.840571,1.54514 0.126143,0.328731 0.525022,0.503673 0.997029,0.436649 0.576879,-0.08192 0.786888,-0.345053 0.786888,-0.98476 0,-0.639704 -0.210009,-0.902329 -0.786888,-0.984246 -0.0536,-0.0076 -0.105863,-0.01181 -0.156458,-0.01277 z m 60.3909,3.44052 c -1.02506,0 -2.37856,1.32549 -2.37856,2.32947 0,0.446473 0.314484,1.12591 0.698433,1.50986 1.42018,1.42018 3.83933,0.506584 3.83933,-1.45004 0,-1.1807 -1.09226,-2.38929 -2.15921,-2.38929 z m -50.5198,0.03835 c -0.442678,0.007 -0.883957,0.232211 -1.35749,0.67338 -0.952769,0.887638 -0.980288,2.21277 -0.06545,3.12761 0.91484,0.914842 2.23997,0.887323 3.12761,-0.06545 0.94116,-1.01021 0.89807,-1.87367 -0.145206,-2.91695 -0.554242,-0.554242 -1.05776,-0.826556 -1.55946,-0.81859 z m -9.80873,15.8093 c -0.168856,0.0041 -0.340278,0.0633 -0.497495,0.19378 -0.650066,0.539506 -0.690807,1.12174 -0.118109,1.69444 0.513477,0.513477 0.975649,0.392181 1.46589,-0.385007 0.434541,-0.688893 -0.187854,-1.5194 -0.850286,-1.50322 z m -6.1959,6.80282 c -0.713674,0.02225 -1.4301,0.310353 -2.014,0.894258 -1.47907,1.47906 -0.919899,4.28802 1.01288,5.08741 2.40605,0.995137 4.92896,-1.59011 3.91654,-4.01318 -0.544855,-1.30402 -1.72596,-2.00558 -2.91542,-1.9685 z m 73.1503,2.18171 c -0.758918,-0.01479 -1.16638,0.696087 -0.840571,1.54514 0.126143,0.328731 0.525022,0.503674 0.997029,0.436649 0.576879,-0.08192 0.786888,-0.345053 0.786888,-0.98476 0,-0.639704 -0.210009,-0.902329 -0.786888,-0.984246 -0.0536,-0.0076 -0.105863,-0.01181 -0.156458,-0.01278 z m -66.2478,0.29911 c -1.31862,0 -1.74506,0.127983 -1.74506,0.523568 0,0.395585 0.426441,0.523569 1.74506,0.523569 1.31862,0 1.74506,-0.127984 1.74506,-0.523569 0,-0.395585 -0.426442,-0.523568 -1.74506,-0.523568 z m 20.9888,0.01686 c -0.386833,2.62e-4 -0.739219,0.04044 -0.977602,0.131916 -0.279937,0.107426 -0.410923,0.353755 -0.291439,0.547088 0.331492,0.536365 3.75853,0.455138 3.58113,-0.08488 -0.109978,-0.334793 -1.32352,-0.594994 -2.31209,-0.594128 z m 15.8415,0.02353 c -0.691425,0.0095 -0.87841,0.142984 -0.87841,0.483175 0,0.456382 0.339419,0.540504 1.83249,0.454544 2.30744,-0.132847 2.24948,-0.768462 -0.08283,-0.909088 -0.354293,-0.02136 -0.640775,-0.0318 -0.871249,-0.02863 z m -9.69574,0.130379 c -0.883258,0.0091 -1.82646,0.1716 -1.92248,0.459657 -0.115154,0.345458 0.299997,0.429606 1.71592,0.348704 1.02744,-0.0587 1.82884,-0.26359 1.78085,-0.455565 -0.06242,-0.249679 -0.794942,-0.360859 -1.57428,-0.352796 z m -21.7245,0.0036 c -1.03938,0 -1.74289,0.167846 -1.83249,0.436649 -0.104941,0.314827 0.405279,0.436138 1.83249,0.436138 1.42721,0 1.93743,-0.121311 1.83249,-0.436138 -0.0896,-0.268803 -0.79311,-0.436649 -1.83249,-0.436649 z m 10.8206,0 c -1.03938,0 -1.74289,0.167846 -1.83249,0.436649 -0.104942,0.314827 0.405284,0.436138 1.83249,0.436138 1.42721,0 1.93743,-0.121311 1.83249,-0.436138 -0.0896,-0.268803 -0.79311,-0.436649 -1.83249,-0.436649 z m 16.0563,0 c -1.03938,0 -1.74289,0.167846 -1.83249,0.436649 -0.104939,0.314827 0.405281,0.436138 1.83249,0.436138 1.42721,0 1.93743,-0.121311 1.83249,-0.436138 -0.0896,-0.268803 -0.79311,-0.436649 -1.83249,-0.436649 z m -23.1654,15.8763 c -0.620128,0.004 -1.22532,0.250253 -1.584,0.762345 -0.744363,1.06272 -0.701266,1.8905 0.14163,2.7334 1.74443,1.74443 4.47481,-0.143795 3.41649,-2.36271 -0.354606,-0.743478 -1.17681,-1.13819 -1.97412,-1.13303 z m 19.3634,0.0542 c -0.08659,0.001 -0.17466,0.0052 -0.26434,0.0138 -1.98614,0.190681 -2.54863,2.72816 -0.855401,3.85876 1.30636,0.872278 3.35104,-0.242276 3.35104,-1.82687 0,-1.22427 -0.93246,-2.05957 -2.2313,-2.0457 z m -4.11953,10.4228 c -2.13572,0 -3.12007,2.04762 -1.67757,3.49012 1.83286,1.832862 4.75314,-0.473003 3.33673,-2.63472 -0.398462,-0.608133 -0.878054,-0.855401 -1.65916,-0.8554 z m 34.1854,1.09827 c -0.05164,-5.24e-4 -0.104602,0.0041 -0.159013,0.01482 -0.901801,0.177647 -1.35586,1.1831 -0.823702,1.82431 0.575622,0.69359 0.880147,0.694645 1.56968,0.0051 0.626366,-0.626367 0.187644,-1.83671 -0.58697,-1.84425 z" />
	</g>
	<g transform="translate(100,200)" id="g111264">
		<path id="transporter" d="m 50.0612,1 -6.71861,5.11196 c -18.6875,14.2179 -28.8197,21.9553 -29.722,22.6972 -1.64507,1.35265 -0.819789,1.52478 7.1674,1.4953 l 7.16788,-0.02637 v 39.5552 l -7.4184,0.166524 c -4.55066,0.102252 -7.4417,0.295556 -7.47847,0.500062 -0.03297,0.183355 8.25599,6.67004 18.4198,14.4149 10.1638,7.74484 18.5202,14.0833 18.5697,14.0853 0.04951,0.002 3.80014,-2.823 8.33454,-6.27764 4.53439,-3.45464 12.8196,-9.76486 18.412,-14.0227 5.59236,-4.25788 10.2164,-7.95728 10.2757,-8.22075 0.09124,-0.405498 -1.04748,-0.479064 -7.41987,-0.479064 h -7.52828 l 0.1719,-39.7218 7.25676,0.03663 c 6.56404,0.03325 7.27784,-0.01775 7.47603,-0.534247 0.14175,-0.369386 -0.0072,-0.721709 -0.422418,-0.998171 -0.353009,-0.235045 -2.46721,-1.82092 -4.69785,-3.52436 -9.08395,-6.93703 -17.344,-13.2328 -24.3961,-18.5941 z m 0.0093,1.65792 c 0.212759,0 4.77491,3.34909 10.1385,7.44185 13.8543,10.5718 18.3448,13.9909 21.6863,16.5138 l 2.93298,2.21463 -6.85046,0.08985 -6.84998,0.09034 v 41.9916 h 6.85388 c 3.76963,0 6.7745,0.128429 6.67759,0.285193 -0.09688,0.156765 -7.8364,6.12001 -17.1989,13.2516 -9.36252,7.13164 -17.1416,13.0079 -17.2868,13.0583 -0.145253,0.05034 -2.58385,-1.67505 -5.41913,-3.83398 -9.05872,-6.89781 -18.5548,-14.1532 -23.4136,-17.8894 -2.59605,-1.9963 -4.98252,-3.79532 -5.3034,-3.99757 -0.320875,-0.202242 -0.58308,-0.478392 -0.58308,-0.613843 0,-0.135455 3.03788,-0.286836 6.75084,-0.33647 l 6.75084,-0.09034 v -41.6722 l -13.6687,-0.333049 3.94922,-3.00037 c 2.17207,-1.6502 8.24783,-6.28075 13.5017,-10.2899 15.2372,-11.6272 16.9232,-12.88 17.3322,-12.88 z m -0.07862,11.9829 c -1.23335,-0.04395 -2.43213,0.366611 -2.74888,1.19204 -0.112747,0.293834 -0.02485,2.13538 0.195336,4.09231 0.46159,4.10216 0.535207,3.96109 -2.9994,5.74534 -2.25534,1.13849 -2.58111,1.50943 -3.12295,3.55562 -0.233361,0.881283 -0.532296,1.9398 -0.664145,2.35235 l -0.239775,0.750093 h 9.52413 c 7.40292,0 9.52093,-0.09312 9.51193,-0.417044 -0.0065,-0.229196 -0.281152,-1.39152 -0.610426,-2.58333 l -0.598707,-2.16726 -2.89001,-1.61983 c -2.84358,-1.59406 -2.89001,-1.64058 -2.89001,-2.89294 0,-0.700049 0.16103,-2.43103 0.357954,-3.84667 0.329241,-2.36719 0.306334,-2.62519 -0.283237,-3.21476 C 51.931192,14.984236 50.95114,14.675 49.99187,14.640821 Z m 0.143573,18.3543 c -5.30139,0 -9.71434,0.122768 -9.80689,0.272494 -0.09251,0.149731 -0.467124,1.34972 -0.832134,2.66684 l -0.663658,2.39483 h 22.366 l -0.216824,-0.917107 c -0.119283,-0.50423 -0.440058,-1.70422 -0.712491,-2.66684 l -0.49518,-1.75022 z m -11.5381,6.3255 -0.380905,1.42108 c -0.209591,0.781597 -0.482317,1.68377 -0.606033,2.00464 -0.201892,0.523718 0.03061,0.58357 2.27226,0.58357 2.25658,0 2.5145,-0.06744 2.68002,-0.700282 0.196257,-0.750493 0.895132,-0.578977 0.895132,0.219753 0,0.40216 1.07908,0.480529 6.62826,0.480529 6.58548,0 6.63038,-0.0049 6.85291,-0.750093 l 0.223661,-0.750093 0.366255,0.750093 c 0.326473,0.669216 0.611729,0.750093 2.64828,0.750093 1.25549,0 2.27984,-0.112514 2.27616,-0.250031 -0.0035,-0.137517 -0.200445,-1.00045 -0.438042,-1.91723 l -0.432181,-1.66671 -11.4926,-0.08741 z m 1.39666,5.00941 c -2.43523,0 -2.50263,0.08907 -1.99537,2.62533 0.198693,0.993451 0.282906,1.04163 1.81126,1.04163 1.73158,0 1.74015,-0.0097 2.16678,-2.4168 l 0.221707,-1.25016 z m 10.1507,0 c -3.47293,0 -6.37318,0.112514 -6.44465,0.250031 -0.07134,0.137517 -0.06495,0.962295 0.01415,1.83324 l 0.143573,1.58369 h 12.6012 v -3.66696 z m 9.75805,0 c -1.99805,0.0044 -1.94377,0.111279 -1.5627,2.4168 0.205361,1.24235 0.216522,1.25016 1.80736,1.25016 1.72938,0 1.73876,-0.01008 2.16531,-2.4168 l 0.22122,-1.25016 h -2.20391 c -0.151959,0 -0.294097,-2.5e-4 -0.427301,0 z m -3.4433,4.98597 -6.41779,0.09083 -6.4173,0.09034 -0.101575,1.5837 -0.101575,1.5832 h 13.4494 l -0.201198,-0.750093 c -0.110579,-0.412551 -0.202265,-1.16585 -0.20559,-1.67404 z m -18.0325,0.01465 0.207546,1.25016 c 0.114279,0.687585 0.266293,1.43752 0.337932,1.66671 0.07164,0.229194 0.510119,0.416554 0.974244,0.416554 0.464158,0 0.844435,-0.18736 0.847761,-0.416554 0.002,-0.229196 0.09634,-0.979127 0.209988,-1.66671 l 0.207056,-1.25016 h -1.39226 z m 21.8855,0 c -0.630908,0 -1.20585,0.112514 -1.27799,0.250031 -0.07211,0.137517 0.0027,0.887448 0.166523,1.66671 0.246599,1.17335 0.430512,1.41668 1.06996,1.41668 0.598107,0 0.819202,-0.234659 0.980589,-1.04163 0.407951,-2.03969 0.304308,-2.29179 -0.939082,-2.29179 z m -10.1873,5.00062 c -5.53352,0 -6.66733,0.08033 -6.66733,0.472716 0,0.260037 -0.09135,0.710093 -0.202663,1.00012 -0.18049,0.470341 0.53991,0.527408 6.66734,0.527408 h 6.87 v -2.00025 z m -3.96485,3.66696 c -3.01604,0 -3.03602,0.0056 -3.03602,0.833599 0,0.823635 0.0335,0.833111 2.83385,0.833111 1.55853,0 2.83336,-0.137344 2.83336,-0.3057 0,-0.168361 0.09135,-0.54357 0.202662,-0.833601 0.17539,-0.457067 -0.20236,-0.527409 -2.83385,-0.527409 z m 7.96535,0 c -2.6872,0 -3.00037,0.06401 -3.00037,0.611404 0,0.336154 0.09995,0.710876 0.222198,0.833111 0.122215,0.122238 1.47238,0.222195 3.00037,0.222195 2.74107,0 2.77818,-0.01078 2.77818,-0.833111 0,-0.827268 -0.02223,-0.833599 -3.00037,-0.833599 z m 0.340865,4.0005 c -2.57425,0 -2.58149,0.0026 -2.42267,0.833598 0.153619,0.803533 0.251756,0.833112 2.74106,0.833112 2.57425,0 2.58148,-0.0023 2.42267,-0.833112 -0.153619,-0.803532 -0.251757,-0.833598 -2.74106,-0.833598 z m -8.92543,5e-4 c -2.52055,2.3e-4 -2.58477,0.02025 -2.63168,0.833111 -0.04747,0.822365 -0.01373,0.833111 2.58382,0.833111 2.58492,0 2.63168,-0.0145 2.63168,-0.833111 0,-0.817329 -0.0501,-0.833346 -2.58382,-0.833111 z m -2.75034,4.33355 v 2.00025 h 4.66757 v -2.00025 h -2.33379 z m 10.9017,0.04346 c -1.38943,0.0193 -1.45691,0.320502 -1.03138,1.42938 0.157685,0.410959 0.714197,0.527411 2.52229,0.527411 h 2.32011 l -0.105483,-0.917107 c -0.103045,-0.895591 -0.161195,-0.918602 -2.52229,-1.01429 -0.471631,-0.0191 -0.862615,-0.02985 -1.18325,-0.02539 z m 1.59981,4.62362 c -1.94468,0 -2.16678,0.06822 -2.16678,0.666585 0,0.598365 0.2221,0.667076 2.16678,0.667076 1.94467,0 2.16726,-0.06871 2.16726,-0.667076 0,-0.598362 -0.222591,-0.666585 -2.16726,-0.666585 z m -11.5551,0.03174 c -0.856649,0.0044 -0.946408,0.150911 -0.946408,0.634841 0,0.645243 0.159218,0.691359 2.08376,0.599685 1.58573,-0.07554 2.08376,-0.219112 2.08376,-0.599685 0,-0.380572 -0.498027,-0.523658 -2.08376,-0.599192 -0.481133,-0.02293 -0.851799,-0.03713 -1.13735,-0.03565 z m 0.887316,5.30241 c -1.40757,0 -1.83372,0.116175 -1.83372,0.500063 0,0.383888 0.426151,0.500062 1.83372,0.500062 1.40758,0 1.83372,-0.116174 1.83372,-0.500062 0,-0.383888 -0.42615,-0.500063 -1.83372,-0.500063 z m 10.8451,0 c -1.63173,0 -1.95546,0.08999 -1.79807,0.500063 0.137752,0.358962 0.6994,0.500062 1.98999,0.500062 1.37587,0 1.79808,-0.117377 1.79808,-0.500062 0,-0.388644 -0.443536,-0.500063 -1.99,-0.500063 z m -10.8451,4.33355 c -1.55752,0 -1.92241,0.387933 -0.916617,0.973756 0.78683,0.458285 1.53339,0.443418 2.01685,-0.04005 0.70492,-0.704908 0.435457,-0.933711 -1.10023,-0.933711 z m 11.0531,0 c -1.1166,0 -1.55195,0.132894 -1.55195,0.472716 0,0.259752 0.187361,0.547736 0.416557,0.640217 0.847905,0.34213 1.49605,0.203541 2.08375,-0.445858 0.595174,-0.657669 0.582363,-0.667075 -0.94836,-0.667075 z" />
	</g>
	<g transform="translate(197.92967,98.99994)" id="g111267">
		<path id="medical" d="m 50.2361,1.00024 c -0.21728,10e-4 -0.43928,0.008 -0.66601,0.0199 -2.1762,0.11578 -3.1957,0.40681 -4.54023,1.29658 -5.12602,3.39224 -5.38414,10.8833 -0.50992,14.8004 2.52852,2.03198 2.15647,2.92275 -1.22072,2.92275 -1.92767,0 -2.59752,0.60619 -2.59752,2.35065 0,1.59138 3.6915,26.9596 4.06449,27.9316 0.14286,0.37226 2.20036,1.43761 4.57194,2.36743 4.98885,1.95595 4.71502,1.89294 5.28397,1.20579 0.41863,-0.50557 4.77491,-29.0281 4.85302,-31.7747 0.0444,-1.56184 -0.6141,-2.06579 -2.71256,-2.07454 -3.35786,-0.014 -3.72173,-0.90212 -1.19958,-2.92897 2.41045,-1.93709 3.39351,-4.08468 3.39351,-7.41323 0,-2.37661 -0.17809,-2.99122 -1.37991,-4.76845 C 55.71365,2.18063 53.49536,0.98052 50.2361,1.0003 Z m -32.021,4.18078 c -12.2177,0 -14.393,0.0948 -15.2014,0.66105 -0.51893,0.36347 -0.94337,0.90265 -0.94337,1.19833 0,0.29567 0.8768,1.90868 1.94892,3.58442 l 1.94954,3.04712 h 29.0727 L 34.55022,10.00606 C 34.18834,7.30795 33.84926,6.18705 33.26607,5.7606 32.63387,5.29832 29.59131,5.18102 18.21507,5.18102 Z m 63.9288,0 c -11.6097,0 -14.6941,0.11679 -15.3271,0.57958 -0.58321,0.42644 -0.92228,1.54741 -1.28415,4.24546 -0.26954,2.01618 -0.39346,3.7637 -0.27361,3.88354 0.11979,0.11982 6.63121,0.16777 14.4695,0.10634 L 93.97974,13.884 95.97343,10.91212 C 98.14101,7.68136 98.36195,6.86498 97.34526,5.84829 96.76476,5.2678 94.79109,5.18102 82.14386,5.18102 Z m -61.024,10.1886 c -11.0882,0 -13.9408,0.11096 -13.6934,0.53107 0.17181,0.29186 1.23976,1.91526 2.37303,3.60805 l 2.06023,3.07823 h 26.7196 v -1.29534 c 0,-0.92364 -0.41417,-1.68505 -1.44335,-2.6535 -0.79377,-0.74693 -1.571,-1.78798 -1.72691,-2.31333 l -0.28295,-0.95518 z m 43.837,0 -0.28357,0.95518 c -0.15593,0.52535 -0.93252,1.5664 -1.72629,2.31333 -1.02918,0.96845 -1.44335,1.72986 -1.44335,2.6535 v 1.29534 h 26.9596 l 1.65478,-2.65349 c 0.91001,-1.45931 1.93402,-3.08333 2.27601,-3.60868 l 0.62187,-0.95518 h -14.0292 z m -52.3217,8.49092 0.76676,1.31089 c 0.42181,0.72114 1.14925,1.51984 1.61622,1.7748 0.46698,0.25495 6.10277,2.03712 12.5237,3.96002 6.42093,1.9229 11.9128,3.51195 12.2047,3.53156 0.78602,0.0528 0.66562,-1.96985 -0.5491,-9.19798 l -0.23196,-1.37929 h -13.1655 z m 56.689,0.0696 c -4.69434,-0.0141 -8.05053,0.0192 -8.12153,0.0902 -0.24423,0.24421 -1.38053,7.87408 -1.38986,9.33168 -0.009,1.46931 -1.38122,1.74467 13.9279,-2.79527 11.3692,-3.37157 11.6212,-3.47021 12.635,-4.96185 l 1.03478,-1.52232 -13.0181,-0.11256 c -1.78996,-0.0155 -3.50341,-0.0252 -5.06819,-0.0298 z m -10.211,17.6143 c -0.45528,-0.007 -0.60984,0.20031 -0.75183,0.72944 -0.58504,2.17996 -0.27819,3.43266 1.02234,4.17271 2.26947,1.29138 1.6085,3.64186 -1.3824,4.91645 -0.78121,0.33292 -1.16922,0.81672 -1.17346,1.462 -0.003,0.53035 -0.12099,1.39434 -0.2618,1.91969 -0.23536,0.8782 -0.11378,0.95518 1.50553,0.95518 4.90606,0 8.67466,-3.94364 7.86968,-8.23471 -0.57264,-3.05242 -2.61382,-5.02391 -5.99414,-5.78955 -0.3582,-0.0811 -0.62697,-0.12817 -0.83392,-0.13121 z m -18.6528,0.19899 c -1.06519,0.0289 -2.64653,0.45979 -3.51663,1.10941 -3.89555,2.90844 -4.02905,8.84963 -0.25559,11.3527 0.71099,0.47163 5.58242,2.46393 10.8254,4.42767 5.24296,1.96374 9.86706,3.85607 10.2757,4.20504 1.16401,0.99409 0.9495,2.89899 -0.42473,3.77346 -1.59286,1.0136 -1.79016,1.36502 -1.79781,3.20322 -0.008,1.84646 0.65769,2.03576 3.29153,0.93528 3.13104,-1.30824 4.76782,-3.63324 4.76782,-6.77209 0,-2.31477 -0.80782,-4.05503 -2.35313,-5.06756 -0.61781,-0.40482 -5.64236,-2.43562 -11.1656,-4.51286 -5.52318,-2.07724 -10.2811,-4.10319 -10.5729,-4.50229 -0.2918,-0.3991 -0.53045,-1.07137 -0.53045,-1.49372 0,-0.9563 1.46344,-2.46631 2.39044,-2.46631 0.5638,0 0.64337,-0.29557 0.42909,-1.59197 -0.14472,-0.87558 -0.26548,-1.85578 -0.26803,-2.17838 -0.003,-0.31154 -0.45598,-0.43898 -1.0951,-0.42163 z m 0.52672,17.3382 c -0.48711,0.0294 -1.15877,0.20236 -2.11185,0.46702 -2.07219,0.57544 -3.26379,2.4406 -3.26602,5.10985 -0.003,3.41762 1.03924,4.4127 8.28259,7.90886 13.6081,6.56822 13.579,6.55114 13.579,7.96171 0,0.96445 -0.2798,1.4014 -1.16786,1.82704 -0.6421,0.30774 -1.16922,0.88331 -1.17346,1.27917 -0.003,0.39586 -0.12036,1.14995 -0.26118,1.6753 -0.22576,0.84252 -0.0989,0.95518 1.08018,0.95518 4.37638,0 7.55571,-4.28321 5.84365,-7.87341 -0.99101,-2.07816 -2.4214,-2.96026 -12.0977,-7.458 -7.04833,-3.2762 -8.89265,-4.3079 -9.34909,-5.23112 -0.49658,-1.00441 -0.47447,-1.25357 0.17225,-1.9682 0.40729,-0.45004 1.08804,-0.81837 1.513,-0.81837 0.63758,0 0.73089,-0.24138 0.53418,-1.37991 -0.3262,-1.88793 -0.50602,-2.51969 -1.57767,-2.45512 z m 4.70315,0.86626 c -0.56631,-0.005 -0.366,6.28437 0.21206,6.65829 0.29186,0.18878 1.86791,0.94707 3.50233,1.68525 4.56033,2.05963 4.70924,2.01086 5.01657,-1.65478 0.14167,-1.69004 0.12143,-3.20412 -0.0448,-3.36428 -0.3307,-0.31871 -8.17127,-3.31956 -8.68619,-3.32448 z m -2.16097,14.4676 c -0.18883,0.009 -0.4405,0.0592 -0.77547,0.12624 -1.80713,0.36143 -4.0795,2.15542 -4.89468,3.86488 -1.22826,2.57569 0.21037,6.03233 3.01915,7.25528 1.32337,0.5762 3.3213,0.78486 3.71811,0.38804 0.11862,-0.11859 0.10324,-0.88994 -0.0348,-1.71385 -0.17219,-1.02758 -0.58474,-1.66284 -1.31275,-2.02292 -1.51123,-0.74747 -1.62619,-2.50123 -0.23569,-3.59499 0.85797,-0.67488 1.08515,-1.22848 1.08515,-2.64914 0,-1.34276 -0.003,-1.68126 -0.569,-1.65354 z m 2.80647,1.85378 c -0.0185,0.002 -0.0317,0.007 -0.0392,0.0149 -0.40044,0.40044 0.71899,20.974 1.189,21.8523 0.55671,1.04021 2.62041,1.17341 3.41154,0.22014 0.31393,-0.37826 0.85679,-3.93336 1.31276,-8.59664 1.14258,-11.6854 1.38704,-10.4667 -2.44579,-12.2134 -1.67534,-0.76348 -3.1515,-1.31077 -3.42833,-1.27731 z" />
	</g>
	<g transform="translate(200)" id="g111496">
		<path d="m 47.180416,97.840544 c -3.06572,-2.579635 -6.174024,-12.090384 -7.847862,-24.012803 -1.177857,-8.389617 -1.196249,-7.985265 0.322424,-7.088158 1.120696,0.662006 1.313961,1.183981 2.247799,6.070849 1.544792,8.084012 3.95674,14.039625 6.164348,15.2211 3.518385,1.882985 6.53624,-1.747766 8.672959,-10.4344 0.400134,-1.626788 0.779778,-3.023079 0.843581,-3.10286 0.06385,-0.07978 0.646371,0.202394 1.2945,0.627063 1.106219,0.724826 1.160656,0.9142 0.888652,3.091261 -0.159397,1.275525 -0.874712,4.548582 -1.589592,7.273469 -3.0091,11.469339 -6.880208,15.818365 -10.996809,12.354479 z M 15.324629,84.773055 c -1.106529,-1.106526 -1.177986,-1.395569 -0.973815,-3.93911 0.35746,-4.453179 4.625391,-12.657356 10.935809,-21.021722 4.258803,-5.644995 5.201826,-6.658552 5.452862,-5.860771 0.117887,0.374631 0.305361,0.973521 0.416613,1.330865 0.111255,0.357345 -1.244661,2.790768 -3.01314,5.407603 -4.009026,5.932198 -5.981573,10.019149 -6.29326,13.039118 -0.204632,1.982685 -0.100936,2.478092 0.682717,3.261745 0.5082,0.508196 1.45423,1.057077 2.1023,1.219729 1.656317,0.415709 6.283139,-1.16677 10.276484,-3.514793 l 3.297813,-1.939061 0.310529,1.381045 c 0.269886,1.200292 0.126754,1.534571 -1.093558,2.554047 -2.133554,1.782406 -9.850796,6.289339 -13.067242,7.631377 -1.571659,0.655761 -3.978601,1.293944 -5.348763,1.418189 -2.274208,0.206212 -2.595211,0.121877 -3.685349,-0.968261 z M 76.017253,84.604058 C 71.684586,82.893852 65.212252,78.988463 59.159666,74.432204 52.60646,69.499071 52.465607,69.334899 54.502627,69.00434 c 1.364724,-0.221468 1.915544,-0.004 4.14135,1.634472 5.36022,3.945962 12.998529,7.738042 15.586564,7.738042 2.477142,0 4.051825,-2.319349 3.558251,-5.240935 -0.306344,-1.813045 -2.961522,-7.570301 -4.572088,-9.913638 -1.004161,-1.461073 -0.661014,-1.975756 1.324929,-1.987325 0.967711,-0.0056 1.573057,0.619893 3.716814,3.840719 4.941661,7.42434 7.969317,14.717316 7.364762,17.740078 -0.637355,3.186743 -4.324224,3.873117 -9.605956,1.788305 z M 42.38624,71.137135 c 0,-1.850057 0.951135,-2.487989 3.064928,-2.055672 l 1.498078,0.306386 -1.997007,1.636398 c -1.098357,0.900016 -2.125032,1.636398 -2.281503,1.636398 -0.156475,0 -0.284496,-0.685582 -0.284496,-1.52351 z m 17.09837,-0.698913 c -1.469021,-1.075964 -1.247276,-2.61748 0.527343,-3.665763 l 1.281751,-0.757158 -0.04397,1.673762 c -0.02417,0.920575 -0.172495,2.105169 -0.329781,2.632433 -0.284357,0.953372 -0.292272,0.954018 -1.435472,0.116726 z M 45.47486,67.147246 c -5.118061,-1.435476 -9.304912,-4.972552 -11.586247,-9.788144 -1.273286,-2.687724 -1.393405,-3.313036 -1.368418,-7.123587 0.02137,-3.258249 0.247227,-4.736804 1.026626,-6.720758 1.39608,-3.553697 5.032232,-7.37583 8.762705,-9.210891 2.762526,-1.358914 3.183617,-1.436835 7.764668,-1.436835 4.462598,0 5.03989,0.09939 7.336576,1.263165 3.346885,1.695947 6.695,5.123813 8.411007,8.611382 1.313542,2.669665 1.407991,3.171797 1.407991,7.48624 0,4.173132 -0.119997,4.868994 -1.229118,7.127538 -3.845293,7.830453 -12.610481,12.011912 -20.52579,9.79189 z m 0.149489,-7.844426 c 4.074379,-1.702384 5.000705,-6.955095 1.792345,-10.163455 -4.036731,-4.036731 -10.526807,-1.279832 -10.526807,4.471647 0,4.665591 4.371963,7.514582 8.734462,5.691808 z m 14.695577,-0.645646 c 3.915824,-2.788318 3.333825,-8.751714 -1.057457,-10.835533 -4.370394,-2.073876 -9.532368,1.745157 -8.773482,6.490951 0.765277,4.78579 5.976851,7.088936 9.830939,4.344582 z M 54.33954,45.912204 c 1.460667,-1.565937 1.677442,-2.070891 1.676034,-3.904198 -0.0044,-3.873091 -2.462939,-6.45199 -6.15429,-6.45199 -3.677381,0 -6.151229,2.580529 -6.154273,6.419665 -0.0013,1.706143 0.247177,2.356709 1.403368,3.673533 1.791237,2.040113 2.704675,2.417026 5.381701,2.220681 1.877392,-0.137694 2.395845,-0.401495 3.84746,-1.957691 z M 30.580181,61.272112 28.667558,61.00837 29.576884,59.857482 c 1.157496,-1.464991 2.698162,-1.247638 3.747453,0.528679 0.858576,1.453455 1.012043,1.403909 -2.744156,0.885951 z m 35.754076,-0.892141 c 0.711183,-1.375356 1.107274,-1.565412 4.193324,-2.012259 3.704981,-0.536462 10.622959,-2.423313 12.989338,-3.542808 2.724785,-1.289016 4.598998,-3.28631 4.598998,-4.900989 0,-2.467249 -4.171512,-4.957665 -11.08241,-6.616284 -1.643544,-0.394448 -2.98826,-0.865758 -2.98826,-1.047359 0,-0.181601 0.445204,-0.836589 0.989344,-1.455533 l 0.989344,-1.125352 5.056649,1.048025 c 13.580262,2.814618 19.872226,6.91002 17.301689,11.26157 -1.539155,2.605599 -6.063975,4.779304 -14.263262,6.852022 -3.966521,1.002717 -15.112602,2.803985 -17.450181,2.820052 -0.965115,0.0066 -0.976987,-0.03882 -0.334573,-1.281085 z M 18.641985,59.458299 C 7.0773387,56.975072 1.0536487,53.807199 1.0536487,50.208556 c 0,-0.965458 0.36535,-2.077751 0.90984,-2.769962 2.208902,-2.808154 12.1982253,-6.124969 23.2741223,-7.727845 7.869618,-1.13887 8.842321,-1.244542 8.681968,-0.943165 -0.07473,0.140451 -0.399523,0.779537 -0.721759,1.420194 -0.493396,0.980931 -0.977089,1.213255 -3.063853,1.471609 -3.740367,0.463076 -11.952608,2.630557 -14.157595,3.736654 -4.084226,2.048786 -5.387113,4.510392 -3.678446,6.949857 0.980687,1.40012 5.309785,3.470421 9.686089,4.632161 l 3.740927,0.993071 -0.935141,1.188838 c -1.075189,1.366881 -1.153717,1.370694 -6.147816,0.298331 z m 50.194874,-2.517231 c -0.427133,-0.816565 -0.172674,-3.627595 0.328373,-3.627595 0.511029,0 3.532264,3.839417 3.246324,4.125393 -0.611108,0.611082 -3.181908,0.253084 -3.574697,-0.497798 z M 68.62659,45.5725 c -0.219196,-1.350873 -0.01408,-1.919311 1.388465,-3.84745 6.719977,-9.238115 9.373619,-16.64744 6.72965,-18.789769 -2.019756,-1.636559 -5.705699,-0.769393 -12.006283,2.82465 l -3.370804,1.922783 -0.289373,-1.542578 c -0.349611,-1.863621 0.08139,-2.269879 6.591231,-6.212652 10.436216,-6.320826 16.35623,-7.289407 17.800804,-2.912404 1.46291,4.432762 -4.721809,16.10706 -15.650719,29.542338 -0.731851,0.89964 -0.911163,0.751569 -1.192971,-0.984918 z M 28.739223,44.938739 c -0.774996,-0.978514 -1.335357,-1.85284 -1.245248,-1.942949 0.09011,-0.09011 0.666762,-0.290063 1.281444,-0.444338 1.552153,-0.389564 2.589859,0.846186 2.298646,2.737344 -0.12103,0.785977 -0.37884,1.429051 -0.57291,1.429051 -0.194069,0 -0.98694,-0.8006 -1.761932,-1.779108 z m 37.805741,-4.706592 c -0.333343,-0.665057 -0.66752,-1.324877 -0.742536,-1.466254 -0.139913,-0.263637 4.808918,0.02457 5.114513,0.297884 0.09322,0.08337 -0.158691,0.65243 -0.559791,1.264573 -1.032789,1.576236 -2.998767,1.526624 -3.812186,-0.0962 z m -43.596827,-2.93981 c -4.390141,-6.047978 -8.221428,-13.734913 -8.580705,-17.215966 -0.338197,-3.27683 0.0766,-4.477326 1.837106,-5.316854 2.063475,-0.984001 5.391766,-0.277029 10.563245,2.24377 6.388089,3.113831 20.566278,13.125026 19.695223,13.906766 -0.18658,0.167453 -0.845483,0.423195 -1.464225,0.568322 -0.879323,0.206245 -1.690885,-0.159413 -3.71652,-1.674524 -3.214085,-2.404036 -8.193364,-5.273794 -11.534458,-6.647761 -3.420363,-1.406571 -5.547173,-1.384027 -7.005452,0.07425 -1.00554,1.005539 -1.107024,1.382212 -0.882696,3.276271 0.254228,2.146573 2.317877,6.974928 4.436442,10.380032 l 1.133017,1.821066 -1.591888,0.185842 c -1.443499,0.168518 -1.712811,0.01926 -2.889089,-1.601211 z m 15.486729,-4.555685 c 0.0069,-1.858218 0.404022,-3.611784 0.814771,-3.597363 0.153174,0.0054 0.710329,0.351649 1.238114,0.769489 1.283988,1.016511 0.925344,2.743619 -0.772008,3.717766 l -1.286879,0.738565 0.006,-1.628457 z m 21.452783,0.823629 c -1.009748,-0.572025 -1.262492,-1.131592 -1.69877,-3.760595 -0.7935,-4.78207 -2.521422,-11.087426 -3.750009,-13.684461 -1.795752,-3.795941 -4.325102,-5.098089 -6.687972,-3.443068 -1.388894,0.972822 -3.347122,5.060455 -4.5208,9.436775 -0.549116,2.04752 -1.047007,3.789659 -1.106417,3.871411 -0.05941,0.08176 -0.690153,-0.281745 -1.401653,-0.807779 L 39.428392,24.216139 40.0422,20.846687 c 0.337591,-1.853199 1.215881,-5.447074 1.951758,-7.98639 4.461094,-15.394093 10.832073,-15.846962 15.464607,-1.09927 1.807951,5.75569 4.170065,19.264545 3.771426,21.568783 -0.146951,0.849332 -0.226013,0.862906 -1.342342,0.230471 z m -5.189571,-2.128422 c -1.900787,-0.308259 -1.856903,-0.796929 0.224733,-2.50267 1.112111,-0.911285 2.104051,-1.574838 2.204347,-1.474565 0.100254,0.100277 0.237796,0.833978 0.305642,1.630449 0.143477,1.68389 -0.963711,2.633993 -2.734722,2.346786 z" id="science" />
	</g>
	<g transform="translate(100)" id="g12346">
		<path id="adioactive" d="m 76.317415,4.8315723 c -0.512432,0 -1.360484,0.750156 -2.004404,1.773686 -3.160514,5.0233597 -15.449777,26.8581287 -15.449777,27.4498767 0,0.377156 0.665948,1.445196 1.480613,2.373001 1.543625,1.75812 3.220376,5.002069 3.238361,6.265405 0.0057,0.403216 0.265667,0.988997 0.577836,1.301166 0.420292,0.420293 4.959358,0.567441 17.491595,0.567441 h 16.924158 l 0.3291,-1.301166 C 99.403942,41.28893 97.86252,33.260928 96.067691,28.482574 93.907628,22.731814 90.558213,17.335721 86.295789,12.740411 82.417187,8.5588673 77.714463,4.8315723 76.317415,4.8315723 Z m -52.649388,0.126098 c -0.745934,-0.02657 -1.730462,0.492003 -3.476702,1.797936 C 11.699826,13.106011 4.9662129,23.226268 2.3332149,33.595087 c -1.129438,4.441729 -1.65229897,9.127869 -1.130034,10.103776 0.44399,0.82961 1.346952,0.868819 17.5546471,0.751046 l 17.086975,-0.124715 0.884765,-2.654985 c 0.486841,-1.460616 1.635839,-3.53297 2.553136,-4.604657 1.209466,-1.41294 1.627304,-2.309222 1.519414,-3.260535 C 40.720298,33.083484 37.141251,26.369556 32.848933,18.885266 26.958077,8.6136963 24.782438,5.2102183 23.97496,5.0020123 c -0.09832,-0.02533 -0.20037,-0.04055 -0.306933,-0.04434 z M 49.842375,38.001587 c -0.84181,-0.0036 -1.681207,0.119394 -2.480391,0.383145 -2.173071,0.717183 -4.913228,3.764607 -5.316206,5.91275 -0.669081,3.566618 1.006623,7.236793 4.03929,8.84834 3.72493,1.979431 8.312967,0.754683 10.75644,-2.871155 1.28609,-1.908391 1.46923,-5.944067 0.366515,-8.076509 -1.324015,-2.560313 -4.359186,-4.18379 -7.365648,-4.196571 z m 5.419442,21.864843 c -0.519545,-0.006 -1.275458,0.11705 -2.486623,0.36721 -2.266676,0.468161 -3.493393,0.480102 -5.524757,0.05404 -1.436165,-0.301044 -2.882964,-0.443308 -3.214807,-0.315936 -0.506281,0.194254 -5.958827,9.345494 -11.943284,20.044735 -0.806201,1.441319 -2.095866,3.685022 -2.866306,4.985719 -2.046075,3.45424 -2.11511,3.803369 -0.95474,4.839532 0.869245,0.776165 3.786526,2.214033 4.577633,2.256601 0.130072,0.007 0.464334,0.158521 0.742731,0.336032 0.278348,0.177557 1.072502,0.425188 1.765375,0.550811 0.69287,0.125627 1.493785,0.373007 1.779228,0.549428 0.285492,0.176422 2.044762,0.597665 3.909733,0.936035 7.90874,1.434983 17.577481,0.623532 25.359559,-2.128424 5.136873,-1.816539 6.334476,-2.614226 5.988962,-3.990795 -0.315195,-1.255912 -15.11974,-27.133695 -16.062256,-28.076211 -0.267188,-0.26728 -0.5509,-0.402772 -1.070448,-0.408777 z" />
	</g>
	<g transform="translate(0,200)" id="g112062">
		<path d="m 49.321574,20.985187 c -7.756922,0.0731 -16.549953,1.126685 -25.790788,3.109358 -4.95151,1.062382 -17.3826877,4.821869 -18.2092557,5.507059 -0.710592,0.589042 -2.674954,6.552143 -3.602606,10.936176 -0.95300199,4.503858 -0.95959099,13.762777 -0.01346,18.574822 0.705946,3.590438 2.655534,9.963753 3.413772,11.159948 1.048659,1.654403 21.4091817,6.7486 32.1855667,8.052609 16.565936,2.004569 35.73293,-0.365271 54.321343,-6.716662 l 3.181934,-1.087303 1.104774,-3.178571 c 4.034788,-11.614122 4.111376,-22.154149 0.248638,-34.039622 l -1.23245,-3.793458 -6.247616,-2.011976 C 78.199119,24.122243 68.528979,22.229529 56.711573,21.240547 54.377984,21.04525 51.907199,20.960823 49.321558,20.985187 Z m -4.831699,3.037456 h 3.813617 V 36.17984 48.336368 H 26.021228 3.7382923 l 0.318529,-2.637611 c 0.386626,-3.204481 2.149868,-10.266669 3.1443,-12.593328 0.685196,-1.60311 0.975233,-1.777319 5.2019717,-3.136239 11.277709,-3.625799 23.798805,-5.946547 32.086782,-5.946547 z m 7.025116,0 h 3.813617 c 7.936064,0 22.029339,2.606632 31.717852,5.86658 l 5.060855,1.702859 0.846049,2.293541 c 1.133206,3.071995 2.447057,8.572776 2.821745,11.813134 l 0.305083,2.637611 H 73.797256 51.514991 V 36.17984 Z m 6.802011,2.293541 c -3.048426,0 -3.626504,0.12747 -4.033358,0.887718 -0.275851,0.515405 -0.475107,4.277618 -0.475107,8.975938 0,4.698326 0.199256,8.460532 0.475107,8.975937 0.457662,0.85527 1.157501,0.887049 19.282445,0.887049 H 92.37343 l 0.370269,-1.001288 C 93.321691,43.479119 91.371567,35.270802 89.882311,32.997911 88.255162,30.514539 68.422029,26.316184 58.317002,26.316184 Z m -16.594431,0.01883 c -2.600321,0.01066 -6.314411,0.323496 -10.485257,0.920645 -8.924884,1.277809 -20.028936,4.02089 -20.892564,5.160977 -1.0047017,1.326348 -3.3291007,9.300221 -3.3291007,11.42136 0,0.607023 0.247593,1.351695 0.55037,1.654469 0.79089,0.790895 37.1026667,0.790895 37.8935557,0 0.776748,-0.776759 0.776748,-17.848468 0,-18.625221 -0.365817,-0.365827 -1.714533,-0.540515 -3.737004,-0.53223 z m 13.462228,0.780869 5.160981,0.325249 c 2.838535,0.178916 7.535258,0.721356 10.436871,1.205569 5.467622,0.91242 16.15545,3.447973 17.529193,4.158356 0.978659,0.506096 3.167691,7.219163 3.269293,10.02628 l 0.07459,2.064387 -18.235464,0.120292 -18.235464,0.119617 v -9.00954 z m -12.021454,0.183459 c 0.986748,0.01563 1.33316,0.157258 1.509989,0.432766 0.228983,0.356726 0.365449,4.364396 0.303074,8.90605 l -0.11357,8.257566 -18.247561,0.120292 C 11.68669,45.114139 8.3245113,45.023919 8.1311743,44.52008 7.5196873,42.926605 10.362245,33.887767 11.761332,32.977095 c 1.104336,-0.718822 9.969541,-3.022485 15.802815,-4.106614 2.092042,-0.388835 6.703464,-0.949611 10.248039,-1.246563 2.737202,-0.229332 4.364407,-0.340202 5.351159,-0.324573 z M 3.7382923,52.006862 H 26.021228 48.303492 v 12.156527 12.157203 l -4.472849,-0.04975 C 35.537466,76.178822 22.57595,73.70274 12.064406,70.201994 L 7.7091543,68.751138 6.8637753,66.45759 C 5.7307403,63.381332 4.4176043,57.880829 4.0433823,54.644457 Z m 47.7766987,0 h 22.282265 22.282936 l -0.296348,2.637611 c -0.389481,3.46767 -1.94551,9.856187 -2.99982,12.315794 -0.824072,1.922496 -0.921931,1.984496 -5.339739,3.399659 -6.732367,2.156555 -14.771459,4.025407 -21.7077,5.045398 v -0.003 c -3.406243,0.500872 -7.999974,0.913255 -10.207721,0.913255 l -4.013873,0.0047 V 64.163153 Z m 22.020183,1.834569 c -9.879675,0 -17.403638,0.186248 -18.090981,0.447554 l -1.176679,0.447555 v 9.094879 c 0,6.663208 0.153088,9.248088 0.57322,9.669448 1.549116,1.55366 25.37059,-2.003589 33.030271,-4.932497 1.674865,-0.640423 2.832275,-2.649716 3.982963,-6.914233 1.332051,-4.936648 1.274575,-6.793912 -0.22781,-7.365152 -0.687346,-0.261306 -8.211307,-0.447554 -18.090984,-0.447554 z m -34.987817,0.116928 c -2.798273,1.19e-4 -6.880522,0.06003 -12.910516,0.166658 -21.0062397,0.371495 -19.2452477,-0.166284 -17.9512037,5.483542 1.078425,4.708506 2.021704,7.339727 2.9245557,8.156763 1.875283,1.697115 16.493712,4.845186 26.913033,5.795353 6.003958,0.547522 6.99629,0.514689 7.765661,-0.254685 0.604523,-0.604546 0.721059,-2.12108 0.721059,-9.393928 0,-8.636357 -0.0046,-8.675829 -1.095363,-9.390564 -0.605514,-0.396736 -1.703437,-0.56334 -6.367226,-0.563139 z m -30.7400897,1.249252 18.5277857,0.119617 18.527785,0.120287 v 8.715874 8.71655 l -2.522697,0.06182 C 34.683723,73.12962 14.612959,69.38058 11.60341,67.20017 10.423038,66.344965 8.6684393,61.344511 8.0814463,57.162467 Z" id="cargo" />
	</g>
	<g transform="translate(198.82361,199)" id="g112195">
		<path d="m 49.777189,98.990742 c -0.177082,-0.1797 -0.321969,-2.78094 -0.321969,-5.78053 v -5.4538 l -2.683095,-0.2966 c -9.687176,-1.07085 -17.411984,-4.80793 -23.747753,-11.48858 -6.258882,-6.5996 -9.555973,-13.64974 -10.318428,-22.06374 l -0.286069,-3.15697 -5.6300132,-0.11938 c -7.48262227,-0.15866 -7.48535907,-0.9386 -0.00386,-1.09731 l 5.6261502,-0.11936 0.266976,-3.10033 c 0.459901,-5.34087 2.239938,-10.84139 5.070882,-15.66949 2.179537,-3.71712 9.782479,-11.0963 13.674922,-13.27244 4.171591,-2.33219 8.716311,-3.82448 13.646364,-4.48087 l 3.954615,-0.52652 0.0064,-5.1815187 c 0.0064,-5.135431 0.312053,-6.63913796 1.233335,-6.069771 0.310024,0.191619 0.477286,2.224113 0.477286,5.800428 v 5.5054517 l 2.897721,0.31 c 10.304776,1.10242 18.88293,5.76238 25.406858,13.8019 1.367917,1.68572 3.081919,4.10452 3.808892,5.37511 1.976439,3.45448 3.894021,9.62302 4.265155,13.7203 l 0.325832,3.59717 5.688097,0.11978 c 4.612747,0.0971 5.688127,0.23681 5.688127,0.7388 0,0.50199 -1.07538,0.64166 -5.688127,0.7388 l -5.688097,0.11978 -0.308124,3.43434 c -0.960401,10.70428 -7.066703,20.61452 -16.765019,27.20878 -4.484962,3.04951 -10.608747,5.19613 -16.674513,5.84503 l -2.838607,0.30368 -0.381082,5.7923 c -0.20957,3.18577 -0.525936,5.64527 -0.703019,5.46556 z m -0.536625,-13.95675 v -1.46675 l -3.287818,-0.29819 C 39.4709,82.681172 32.844843,79.683542 27.697784,75.010502 21.153411,69.068862 17.662559,62.192322 16.623115,53.194842 l -0.285168,-2.46843 h -1.505784 -1.505817 l 0.302297,2.89772 c 0.395378,3.79005 1.651121,8.68901 2.960247,11.54849 3.57672,7.81263 11.489783,15.47668 19.343635,18.73491 3.47514,1.4417 10.884321,2.97219 12.878758,2.66033 0.236099,-0.0369 0.429281,-0.72716 0.429281,-1.53387 z m 9.661643,0.48918 c 7.36211,-1.88775 14.046732,-6.2483 19.321678,-12.60402 4.409461,-5.3129 7.156275,-12.00779 7.916475,-19.29502 l 0.302297,-2.89772 h -1.528515 c -1.637116,0 -1.740564,0.16591 -2.141222,3.43433 -0.101292,0.82639 -0.131943,-0.23611 -0.06813,-2.3611 0.29312,-9.75603 -2.443229,-17.27282 -8.703625,-23.90918 -3.49552,-3.70543 -7.341053,-6.49568 -11.144182,-8.08602 -2.986101,-1.24868 -8.528055,-2.5628 -10.807917,-2.5628 h -1.305971 v 5.79544 5.79544 l 1.609845,0.0428 c 0.885414,0.0235 2.092798,0.19746 2.683064,0.3865 0.64207,0.20562 -1.427546,0.34371 -5.151503,0.34371 -3.723957,0 -5.793574,-0.13809 -5.151503,-0.34371 0.590265,-0.18904 1.797649,-0.36296 2.683063,-0.3865 l 1.609845,-0.0428 v -5.79544 -5.79544 h -1.30597 c -2.098014,0 -7.709836,1.28123 -10.400369,2.37449 -3.862179,1.56934 -8.095619,4.61994 -11.64024,8.38789 -5.014247,5.33016 -7.674,11.32875 -8.599822,19.39538 l -0.234071,2.03913 h 5.743185 5.743153 l 0.498375,-2.89772 c 0.274093,-1.59374 0.960305,-3.91398 1.52491,-5.15608 l 1.026565,-2.25835 18.588555,0.11189 18.588522,0.1119 0.963266,2.0157 c 0.529768,1.10863 1.191704,3.4268 1.47098,5.1515 0.279243,1.72469 0.763388,3.35029 1.075859,3.61243 0.446506,0.37456 0.568178,3.05344 0.568178,12.51086 0,10.30108 -0.09276,12.06983 -0.643937,12.28134 -0.563253,0.21614 -0.643938,-1.31105 -0.643938,-12.18889 V 50.297122 H 61.046102 50.743096 v 18.1579 18.1579 l 3.114921,-0.29753 c 1.713229,-0.16365 3.98311,-0.52015 5.04419,-0.79222 z m -9.661643,-24.31488 v -10.26724 l -10.451659,-0.11504 -10.451691,-0.11505 0.306836,2.2615 c 0.97122,7.15782 5.723449,13.53618 12.439978,16.69675 2.303495,1.08394 6.589127,2.1358 7.727255,1.89655 0.271709,-0.0571 0.429281,-3.85901 0.429281,-10.35747 z M 16.602831,46.608032 c 0.817769,-7.63616 3.736482,-13.85768 9.218679,-19.65034 5.528689,-5.84182 12.339942,-9.30076 19.770083,-10.03976 l 3.21969,-0.32023 0.134518,-1.3952 c 0.12779,-1.32539 0.06191,-1.39519 -1.31637,-1.39519 -4.218211,0 -11.737989,2.21487 -15.738678,4.63567 -10.514829,6.36248 -17.039691,16.45949 -18.295981,28.31248 l -0.284395,2.68307 h 1.494676 1.494644 z m 69.536081,0.14743 c -1.081623,-10.43786 -5.646627,-18.78048 -13.838676,-25.2904 -5.424951,-4.31102 -11.733675,-6.86805 -18.495376,-7.49648 l -3.125803,-0.29052 0.139316,1.45982 0.139348,1.45982 3.210706,0.3201 c 7.668817,0.76455 13.032175,3.43983 19.121928,9.53813 2.571695,2.57532 4.950562,5.43086 5.913732,7.0988 2.064111,3.57432 3.68326,8.69236 4.023549,12.71804 l 0.267621,3.16576 h 1.460837 1.460838 z" id="tactical" />
	</g>
	<g transform="translate(0,100)" id="g112531">
		<path d="m 50.728516,1 -0.34375,0.4550782 -0.779297,1.0234374 c -0.0012,-0.00228 0.0075,-0.00705 -0.03906,0.00586 -0.06979,0.01932 -0.122747,-0.010613 -0.302734,0.1269531 -0.201186,0.1537697 -0.358571,0.3052431 -0.509766,0.4628907 -0.306304,0.3193761 -0.626413,0.7036949 -0.988281,1.1679687 -0.724475,0.929499 -1.606885,2.1733189 -2.560547,3.5859375 -1.907609,2.8256614 -4.07469,6.3067084 -5.583985,9.0996094 -0.596684,1.104153 -0.960793,1.618353 -1.023437,1.679688 -0.06109,0.05981 -0.07728,0.07501 -0.205078,0.132812 -0.127802,0.0578 -0.356912,0.140074 -0.746093,0.267578 -4.586163,1.502525 -9.748975,4.79959 -13.587891,8.597656 -8.041079,7.955406 -11.856419,18.59684 -10.775391,30.00586 0.624476,6.590758 3.103539,13.088953 6.964844,18.203125 l 0.960937,1.273437 -0.59375,4.322266 c -0.445113,3.243727 -0.867411,6.673051 -1.179687,9.501953 -0.312012,2.826496 -0.520609,4.924292 -0.523438,6.009766 -0.0014,0.396064 0.01226,0.756635 0.04688,1.080078 0.01644,0.153564 0.03633,0.315891 0.08984,0.525391 0.02082,0.08153 0.06281,0.249892 0.181641,0.474609 0.05093,0.09633 0.159805,0.292352 0.376953,0.496098 C 19.851817,99.727348 20.288491,100 20.871094,100 c 0,0 0.04071,-0.002 0.04297,-0.002 0.0022,-2.3e-4 0.0057,-0.002 0.0098,-0.002 0.0081,-8.17e-4 0.01752,-0.002 0.03125,-0.0039 0.02746,-0.0029 0.065,-0.0059 0.101562,-0.0098 0.03657,-0.0038 0.07219,-0.0091 0.09961,-0.01172 0.01371,-9.61e-4 0.02523,-0.0029 0.0332,-0.0039 0.0039,-4.14e-4 0.0076,2.02e-4 0.0098,0 0.002,-2.12e-4 0.0039,0 0.0039,0 l -0.002,0.002 0.03516,-0.0078 c 1.74e-4,-3.9e-5 0.05688,-0.01171 0.101563,-0.02344 0.04468,-0.01173 0.08749,-0.02288 0.144531,-0.04297 0.128752,-0.04557 0.224998,-0.09801 0.277343,-0.126949 0.1202,-0.06642 0.199904,-0.124775 0.238282,-0.154297 0.09114,-0.07008 0.145763,-0.125343 0.169922,-0.148433 h 0.002 c 0.06759,-0.0647 0.114977,-0.116768 0.160156,-0.166015 0.09055,-0.09873 0.18919,-0.211113 0.310547,-0.35352 0.241827,-0.283773 0.566017,-0.673726 0.957031,-1.152344 0.782668,-0.958019 1.833255,-2.267913 2.97461,-3.710938 2.258861,-2.855935 4.876521,-6.048271 5.599609,-6.851562 l 0.56836,-0.63086 0.185546,0.105469 c 2.582264,1.44325 6.772508,2.84519 10.236328,3.496094 4.513517,0.848157 11.774478,0.623241 16.175782,-0.507813 4.177312,-1.073493 9.914796,-3.92799 13.101562,-6.55664 0.309648,-0.255417 0.429763,-0.330959 0.589844,-0.445313 0.03236,0.06353 0.05884,0.114297 0.09766,0.191406 0.483891,0.961199 1.113869,2.23177 1.771485,3.572266 0.669248,1.364207 1.305841,2.602065 1.804687,3.521485 0.249283,0.45945 0.461701,0.836545 0.644531,1.134765 0.09075,0.148015 0.175932,0.278243 0.28125,0.419922 0.04509,0.06066 0.114181,0.159035 0.234375,0.279297 -0.09755,-0.0976 0.02963,0.129271 0.253907,0.296875 0.224279,0.167604 0.555661,0.263672 1.078124,0.263672 0.474215,0 0.925601,-0.185265 1.253907,-0.462891 0.297568,-0.25163 0.454389,-0.529442 0.542968,-0.722656 0.177224,-0.386573 0.21128,-0.690007 0.236328,-0.935547 0.05413,-0.530592 0.03421,-1.098625 -0.01562,-1.849609 -0.100007,-1.507445 -0.361632,-3.738838 -0.798829,-6.976563 l -0.749999,-5.5625 1.167968,-1.726562 C 88.908994,62.181233 88.915245,45.791311 80.863281,33.71875 76.405562,27.035127 69.11048,21.222511 62.19336,18.994141 c -0.43415,-0.139862 -0.658656,-0.20592 -0.751954,-0.246094 -0.09329,-0.04017 -0.07303,-0.02863 -0.185547,-0.15625 -0.148735,-0.168031 -0.686718,-1.056492 -1.625,-2.81836 C 58.055796,12.815806 56.26438,9.6358628 54.816406,7.1757813 54.092525,5.9459168 53.457424,4.8977438 52.96289,4.1308594 52.715704,3.7475381 52.506027,3.4370201 52.314453,3.1796875 52.221332,3.0546028 52.127863,2.9331906 51.998047,2.7949219 51.940465,2.7335885 51.84874,2.6371928 51.703125,2.5273437 c -0.0698,-0.052666 -0.07595,-0.043344 -0.0957,-0.046875 z m -0.07813,1.375 0.396485,0.6660156 0.04687,0.041016 c 0.09607,0.082723 0.12742,0.076394 0.15625,0.085937 0.0152,0.00503 0.02237,0.0068 0.0332,0.00977 0.06264,0.051218 0.110141,0.093467 0.156249,0.1425781 0.101935,0.1085708 0.167716,0.1973362 0.257813,0.3183594 0.174862,0.2348832 0.378852,0.5345047 0.621093,0.9101562 0.484329,0.7510611 1.117045,1.7928713 1.837891,3.0175781 1.441487,2.4490606 3.225942,5.6221526 4.794922,8.5683596 0.942772,1.770302 1.397579,2.591703 1.726562,2.964844 0.126317,0.143271 0.272856,0.275321 0.458984,0.355468 0.186129,0.08015 0.395522,0.134639 0.820313,0.271485 6.693932,2.156469 13.911352,7.890426 18.267579,14.421875 7.873306,11.804699 7.86301,27.871539 -0.03125,39.554687 l -1.330078,1.970703 0.789062,5.851562 c 0.436353,3.231476 0.697474,5.458843 0.794922,6.927735 0.04891,0.737185 0.06032,1.261436 0.01367,1.71875 -0.02534,0.248414 -0.03428,0.403708 -0.167969,0.695313 -0.06688,0.145874 -0.147144,0.29408 -0.339844,0.457031 -0.161959,0.136957 -0.516623,0.277345 -0.757813,0.277344 -0.42955,0 -0.577867,-0.07854 -0.61914,-0.109375 -0.04127,-0.03084 0.03319,-0.0253 -0.167969,-0.226563 -0.08703,-0.08707 -0.112925,-0.122613 -0.164062,-0.191406 C 78.157,90.956996 78.089882,90.851168 78.003906,90.710937 77.833308,90.432671 77.62481,90.062598 77.378907,89.609375 76.887383,88.703453 76.255241,87.473544 75.589844,86.117187 74.931245,84.774686 74.298128,83.501759 73.8125,82.537109 73.688232,82.290263 73.60931,82.133033 73.507813,81.933593 L 73.302734,81.533204 72.9375,81.796875 c -0.282098,0.205418 -0.468801,0.321159 -0.986329,0.748047 -3.045084,2.511784 -8.784548,5.373148 -12.804687,6.40625 -4.223817,1.085443 -11.503198,1.311381 -15.841796,0.496093 -3.375818,-0.634366 -7.545945,-2.041378 -10.001954,-3.414062 l -0.722656,-0.402343 -0.978516,1.085937 c -0.781124,0.867764 -3.36774,4.024883 -5.632812,6.888671 -1.139207,1.44031 -2.189792,2.747697 -2.96875,3.701172 -0.389799,0.47713 -0.708938,0.865543 -0.94336,1.140626 -0.116768,0.137023 -0.209928,0.243448 -0.292968,0.333984 -0.04161,0.04537 -0.07243,0.07479 -0.126953,0.126953 -0.03689,0.03526 -0.04453,0.04779 -0.109375,0.09766 -0.03961,0.03048 -0.05628,0.04518 -0.140625,0.0918 -0.04993,0.02761 -0.08014,0.04471 -0.158203,0.07227 0.0054,-0.0019 -0.04788,0.01539 -0.08594,0.02539 -0.03135,0.0087 -0.03862,0.0086 -0.04297,0.0098 -0.0066,6.73e-4 -0.01067,9.9e-4 -0.01953,0.002 -0.02748,0.0029 -0.06499,0.0059 -0.101563,0.0098 -0.03658,0.0038 -0.07219,0.0091 -0.09961,0.01172 -0.01371,9.62e-4 -0.02523,0.0029 -0.0332,0.0039 -0.0039,4.13e-4 -0.0077,-2.11e-4 -0.0098,0 -0.002,2.12e-4 -0.0039,0 -0.0039,0 -0.32663,0 -0.582987,-0.183911 -0.69922,-0.292963 -0.143479,-0.13462 -0.169962,-0.199174 -0.222655,-0.298829 -0.08844,-0.167242 -0.09058,-0.200493 -0.117189,-0.304687 -0.04136,-0.161936 -0.05027,-0.265281 -0.06641,-0.416016 -0.03052,-0.285155 -0.04632,-0.618297 -0.04492,-0.994141 0.0026,-0.986432 0.208057,-3.108066 0.519531,-5.929688 0.311402,-2.820978 0.73167,-6.244046 1.175781,-9.480468 l 0.634765,-4.636719 -1.152343,-1.527344 C 17.091692,70.361558 14.661663,63.9868 14.050749,57.539188 12.989937,46.343537 16.715467,35.95258 24.599577,28.15247 c 3.75128,-3.711362 8.856254,-6.960467 13.28711,-8.41211 0.39604,-0.129752 0.635355,-0.215178 0.820312,-0.298828 0.184956,-0.08365 0.324628,-0.184204 0.427735,-0.285156 0.265752,-0.260198 0.555662,-0.743018 1.162109,-1.865235 1.489779,-2.756789 3.651918,-6.224331 5.546875,-9.0312494 0.947621,-1.4036714 1.825182,-2.6390386 2.53125,-3.5449219 0.353407,-0.4534174 0.658087,-0.8181218 0.935546,-1.1074218 0.126308,-0.1316964 0.238744,-0.2369542 0.375001,-0.3457032 0.01844,-0.00959 0.05126,-0.02751 0.08594,-0.037109 0.07581,-0.020987 0.162402,-0.016665 0.318359,-0.1347656 l 0.04102,-0.03125 z m -0.06836,1.2011719 -0.0059,0.00977 c -0.0068,-2.045e-4 -0.0045,-0.00391 -0.01172,-0.00391 -0.230507,0 -0.317286,0.090904 -0.425781,0.1738281 -0.108495,0.082925 -0.218242,0.1875788 -0.341797,0.3164063 -0.24711,0.2576547 -0.545614,0.6139938 -0.890625,1.0566405 -0.690021,0.8852935 -1.564097,2.1128206 -2.505859,3.5078126 -1.883525,2.7899846 -4.039344,6.2519776 -5.511719,8.9765626 -0.60617,1.121704 -0.945786,1.696937 -1.28125,2.025391 -0.335464,0.328454 -0.705889,0.476224 -1.511718,0.740235 -4.286384,1.404309 -9.353608,4.619219 -13.023438,8.25 -7.748792,7.666234 -11.39496,17.835796 -10.351563,28.847656 0.598878,6.320583 2.991273,12.588739 6.675781,17.468749 l 1.322266,1.748047 -0.673828,4.91211 c -0.443202,3.229797 -0.865118,6.648611 -1.175782,9.462891 -0.310662,2.814279 -0.511522,4.994689 -0.513671,5.859374 -0.0012,0.353781 0.01267,0.673438 0.03906,0.919922 0.01319,0.123243 0.02825,0.226417 0.05273,0.322266 0.01224,0.04792 0.02451,0.09178 0.05859,0.15625 0.01704,0.03223 0.03843,0.07285 0.08984,0.121094 0.05142,0.04825 0.150734,0.111327 0.275391,0.111327 2.92e-4,0 0.07778,-0.0077 0.07813,-0.0078 3.48e-4,-7.1e-5 0.03865,-0.01064 0.05273,-0.01563 0.02817,-0.01 0.04616,-0.01938 0.06055,-0.02734 0.02879,-0.01592 0.04409,-0.02549 0.05664,-0.03516 0.02512,-0.01933 0.03968,-0.03447 0.05469,-0.04883 0.03001,-0.02872 0.05866,-0.05941 0.09375,-0.09766 0.07015,-0.07649 0.160741,-0.181871 0.275391,-0.316407 0.229299,-0.26907 0.549733,-0.654262 0.9375,-1.128905 0.775535,-0.949287 1.82352,-2.257266 2.960938,-3.695313 2.269861,-2.869843 4.83712,-6.003644 5.660155,-6.917968 l 1.335938,-1.486329 1.19336,0.666015 c 2.329585,1.302026 6.510619,2.718034 9.798828,3.335939 4.159894,0.781705 11.506697,0.554377 15.548828,-0.484376 3.859353,-0.991783 9.645201,-3.879607 12.544922,-6.271484 0.877287,-0.723642 1.463128,-1.164174 1.804687,-1.353516 0.140277,-0.07776 0.199181,-0.08781 0.232421,-0.0957 0.03072,0.05448 0.11222,0.202446 0.248048,0.464843 0.155569,0.300538 0.361964,0.707711 0.605469,1.191407 0.487009,0.967392 1.119745,2.241497 1.779297,3.585937 0.662007,1.349449 1.292413,2.576933 1.777343,3.470704 0.242465,0.446884 0.446625,0.809267 0.605469,1.068359 0.07942,0.129545 0.147635,0.231922 0.208985,0.314453 0.03067,0.04127 0.05772,0.07723 0.09766,0.117188 0.03993,0.03995 0.0522,0.136718 0.3125,0.136718 0.115672,0 0.240091,-0.04965 0.322266,-0.119141 0.08217,-0.06949 0.130045,-0.146501 0.164063,-0.220702 0.06803,-0.148404 0.09232,-0.299973 0.111328,-0.486328 0.03802,-0.372711 0.02997,-0.888799 -0.01758,-1.605469 -0.09509,-1.433341 -0.353489,-3.653196 -0.789063,-6.878906 l -0.824219,-6.10547 1.47461,-2.183593 C 87.369317,61.88415 87.379441,46.087526 79.664007,34.519536 75.401646,28.128736 68.238866,22.456965 61.751953,20.367188 60.891415,20.089965 60.56995,19.994212 60.173828,19.544922 59.777706,19.095632 59.298117,18.217576 58.357421,16.451172 56.793798,13.515023 55.011942,10.347555 53.576172,7.9082031 52.858286,6.6885273 52.225508,5.6494912 51.75,4.9121094 51.512247,4.5434184 51.316847,4.2514903 51.160156,4.0410157 51.081811,3.9357783 51.013466,3.8517608 50.947265,3.78125 c -0.0331,-0.035255 -0.06534,-0.066874 -0.111328,-0.1015625 -0.04127,-0.031129 -0.107944,-0.077223 -0.24414,-0.087891 z m -0.07812,1.3730468 2.134765,3.5917969 c 6.33782,10.6664464 13.590631,26.7760174 17.482422,38.8320314 4.020727,12.455479 7.308635,28.154152 8.425781,40.220703 l 0.01758,0.181641 -2.849609,-5.535157 C 71.560053,74.16743 68.439595,68.87553 65.775391,65.691406 c -1.332103,-1.59206 -2.551117,-2.660845 -3.751953,-3.273438 -1.200837,-0.61259 -2.38966,-0.752622 -3.558594,-0.482421 -1.370397,0.316744 -3.26096,1.232363 -5.412109,2.537109 -2.15115,1.304747 -4.547328,3.0021 -6.851563,4.884766 -6.12542,5.004742 -13.236063,12.53559 -20.880859,22.107422 -2.151325,2.693568 -3.20078,4.001225 -3.791017,4.703125 0.03318,-0.414467 0.04668,-0.659178 0.123048,-1.390625 0.125844,-1.205253 0.300149,-2.772717 0.501953,-4.484376 0.403608,-3.423314 0.909833,-7.43067 1.314453,-10.310546 C 27.927092,48.25073 37.019678,22.685564 49.763672,5.9238282 Z m -0.06055,1.2167969 -0.345703,0.4570313 c -0.516688,0.6856957 -0.979722,1.4448776 -1.458985,2.1230469 l 0.607422,0.4707031 c 0.137687,-0.1622839 0.226372,-0.2810358 0.357422,-0.3847657 0.210895,-0.166929 0.667372,-0.3932611 1.11328,-0.3164062 l 1.25586,0.21875 z m -0.06055,1.4023438 0.128906,0.2167968 c -0.103059,0.00112 -0.200669,0.00999 -0.296875,0.025391 0.05485,-0.080742 0.112971,-0.1631792 0.167969,-0.2421878 z m 0.218749,1.609375 C 50.383556,9.1401597 50.173878,9.2372054 50.019531,9.359375 49.865185,9.4815446 49.724987,9.6414486 49.552734,9.8652343 49.208229,10.312806 48.749749,11.01549 48.054688,12.095703 38.740785,26.570869 32.077165,43.727196 28.173828,63.267578 26.987264,69.207657 25.523211,78.727874 25.115234,83.179687 l -0.326171,3.578126 4.716797,-5.078126 c 2.160945,-2.326508 6.030498,-6.180724 8.574218,-8.541015 10.48958,-9.733045 17.055736,-13.969361 21.796875,-14.308594 1.272124,-0.09103 2.730299,0.02334 3.304688,0.212891 0.592197,0.195445 1.913659,1.253917 3.341796,2.781249 1.428139,1.527334 3.026549,3.522974 4.449219,5.615235 0.604572,0.889114 1.154989,1.656593 1.558594,2.183594 0.201802,0.2635 0.364201,0.46499 0.492188,0.603515 0.06399,0.06926 0.108055,0.119938 0.197266,0.179688 0.0446,0.02988 0.09199,0.103719 0.30078,0.07422 0.104397,-0.01475 0.237067,-0.103958 0.289063,-0.195311 0.052,-0.09135 0.05078,-0.15916 0.05078,-0.205079 0,-0.143762 -0.02103,-0.24336 -0.05469,-0.451172 -0.03365,-0.207813 -0.08156,-0.478731 -0.140624,-0.798828 C 73.547894,68.189887 73.385829,67.359249 73.207031,66.490235 71.00622,55.79395 67.077139,43.793608 61.652343,31.18164 60.5295,28.571161 58.119554,23.464438 55.884765,18.865234 54.767371,16.565633 53.695123,14.39203 52.84961,12.726562 52.426853,11.893829 52.060555,11.188872 51.773438,10.654297 51.48632,10.119722 51.298841,9.7805876 51.15039,9.5839843 51.095263,9.5109697 50.976394,9.4703782 50.902344,9.4003906 l -0.0293,-0.1757812 z m -0.111328,0.7929687 c -0.0055,0.00328 -0.01889,-0.01093 0.04688,0.076172 0.05455,0.07225 0.276248,0.445015 0.558593,0.970703 0.282344,0.525689 0.64722,1.229045 1.06836,2.058594 0.842279,1.659096 1.913329,3.828335 3.029296,6.125 2.231936,4.593331 4.645078,9.707261 5.753907,12.285156 5.408068,12.573081 9.320537,24.527678 11.507812,35.158203 0.16346,0.794471 0.304095,1.526919 0.417969,2.136719 -0.363334,-0.488608 -0.769951,-1.047347 -1.263672,-1.773438 -1.445399,-2.125688 -3.06472,-4.144905 -4.525391,-5.707031 -1.460669,-1.562124 -2.698035,-2.670104 -3.662109,-2.988281 -0.814581,-0.268825 -2.249543,-0.344648 -3.59961,-0.248047 -5.136314,0.367508 -11.74139,4.744565 -22.265625,14.509765 -2.564635,2.3797 -6.429231,6.230651 -8.613281,8.582032 l -3.183593,3.427734 0.123046,-1.335937 c 0.401776,-4.384177 1.865537,-13.92594 3.044922,-19.830079 3.887348,-19.460335 10.518856,-36.523275 19.773437,-50.906249 0.693436,-1.077684 1.153274,-1.776071 1.460938,-2.175781 0.150159,-0.195083 0.263526,-0.312693 0.328125,-0.3652339 z m -0.08008,1.1992189 -0.359376,0.533203 c -0.24269,0.360212 -0.39682,0.571387 -0.783202,1.171875 -9.202671,14.302296 -15.806338,31.283565 -19.679688,50.673828 -1.060794,5.310451 -2.211916,13.12119 -2.744141,17.857422 l -0.13086,1.158203 1.738282,-1.867188 c 2.204499,-2.373397 6.063356,-6.218376 8.646484,-8.615234 10.556569,-9.7952 17.181648,-14.298155 22.677735,-14.691406 1.434677,-0.102655 2.795947,-0.06515 3.857422,0.285156 1.356493,0.447689 2.439667,1.555928 3.943359,3.164063 0.931612,0.99632 1.926152,2.380795 2.923828,3.689453 L 71.18164,64.21289 C 68.92933,54.281577 65.298115,43.304603 60.328125,31.75 59.231425,29.200303 56.817361,24.082399 54.58789,19.494141 53.473203,17.200108 52.403952,15.034479 51.564453,13.38086 51.226352,12.714876 50.958921,12.207614 50.710937,11.738281 Z m -3.716798,0.402344 c -1.823119,2.804382 -3.530899,5.871908 -5.179687,9.066406 -0.203644,0.386614 -0.441546,0.739834 -0.642578,1.128906 -6.53e-4,0.0013 -0.0013,0.0027 -0.002,0.0039 l 0.685546,0.34961 c 6.5e-4,-0.0012 0.0013,-0.0027 0.002,-0.0039 0.200885,-0.400881 0.435008,-0.724502 0.638672,-1.119141 1.638144,-3.174213 3.333108,-6.222474 5.142577,-9.005859 l -0.002,-0.002 0.002,-0.002 z m 3.634766,1.097656 c 0.172779,0.329515 0.331089,0.63165 0.548829,1.060546 0.207081,0.407905 0.515316,1.044434 0.748046,1.509766 -0.205167,-0.23021 -0.585434,-0.582494 -1.304688,-0.585938 -0.859803,-0.0045 -1.377729,0.557112 -1.572265,0.869142 -0.157494,0.252618 -0.206908,0.456965 -0.22461,0.523437 -0.05423,0.20362 -0.06496,0.339271 -0.07227,0.421875 -0.01427,0.161382 -0.01443,0.318192 -0.01563,0.484375 v 0.002 c -0.0024,0.01364 -0.0033,0.02194 -0.0039,0.02734 -0.0012,0.01081 -0.0014,0.01503 -0.002,0.02148 -0.0011,0.01289 -9.21e-4,0.02572 -0.002,0.04102 -0.0039,0.06118 -0.01114,0.159815 -0.01953,0.25 -0.01842,0.197741 -0.04439,0.475661 -0.08008,0.816406 -0.07162,0.683465 -0.177706,1.628362 -0.302735,2.74414 -0.249982,2.230885 -0.583255,5.144854 -0.92578,8.06836 -0.342533,2.923553 -0.692454,5.856233 -0.968751,8.117187 -0.138158,1.130566 -0.258304,2.093804 -0.349609,2.800782 -0.04306,0.333425 -0.08234,0.62187 -0.111328,0.824218 -0.0039,0.02753 -0.0062,0.04021 -0.0098,0.06445 -0.458379,0.142321 -1.475482,0.457216 -2.90039,0.890625 l -7.027344,2.138671 c 3.699923,-11.160228 8.35481,-21.414083 14.179687,-30.466796 0.203251,-0.315877 0.294727,-0.445287 0.416016,-0.623047 z m -0.01172,2.753907 c 0.592424,0.0029 0.727968,0.25915 0.859374,0.435546 0.105277,0.141324 0.106728,0.165657 0.144531,0.255859 0.05532,0.132009 0.06567,0.183186 0.0918,0.285156 0.04584,0.178918 0.08443,0.370303 0.13086,0.634766 0.09263,0.527599 0.205866,1.297538 0.349609,2.347656 0.287435,2.09988 0.690224,5.317879 1.234375,9.837891 0.415986,3.4555 0.821659,6.62043 1.138672,8.929687 0.158524,1.154766 0.294954,2.096456 0.398437,2.746094 0.01795,0.112651 0.02673,0.158904 0.04102,0.244141 l 0.03906,0.226563 0.216796,0.07422 c 0.106625,0.03659 0.183088,0.06562 0.322266,0.111329 0.613256,0.201441 1.43969,0.454697 2.31836,0.708984 0.900025,0.260469 1.71743,0.511195 2.322265,0.710937 0.302851,0.100013 0.546908,0.18449 0.742188,0.259765 0.09961,0.03839 0.16988,0.06766 0.271484,0.117189 0.06663,0.03248 0.08497,0.03823 0.185547,0.107421 0.06909,0.04753 0.09208,0.05607 0.191406,0.164063 0.0508,0.05523 0.09789,0.109186 0.160156,0.226562 -0.0023,-0.0043 0.0314,0.06932 0.05273,0.125 0.02133,0.05568 0.02921,0.07977 0.0293,0.08008 0.0012,0.0077 0.04102,0.29241 0.04102,0.292968 0,5.67e-4 -0.03694,0.276696 -0.03711,0.277344 -8.7e-5,3.24e-4 -0.0063,0.02301 -0.02344,0.07227 -0.01706,0.04927 -0.04628,0.116331 -0.04297,0.109375 -0.04922,0.103186 -0.0823,0.14686 -0.123047,0.199218 -0.07628,0.09802 -0.09587,0.111995 -0.148438,0.158204 -0.0803,0.07057 -0.102976,0.08122 -0.156249,0.117187 -0.08608,0.05811 -0.156392,0.09858 -0.253907,0.154297 -0.187522,0.107145 -0.426781,0.236235 -0.722656,0.388672 -0.592207,0.30511 -1.395469,0.700468 -2.279297,1.119141 -1.416483,0.670994 -2.00363,1.005649 -2.205079,1.126952 l -0.224608,0.134766 0.04492,0.259766 c 0.253219,1.417223 0.477992,2.866745 0.623046,3.992188 0.0748,0.58029 0.12926,1.07391 0.158203,1.455077 0.01458,0.191867 0.02271,0.344535 0.02148,0.503906 -6.62e-4,0.08589 -0.0014,0.141253 -0.01758,0.257813 -0.03273,0.23591 0.009,0.2026 0,0.238282 -0.009,0.03568 -0.06045,0.167862 -0.316407,0.423828 -0.203956,0.203956 -0.658755,0.320272 -0.822266,0.310546 -0.239265,-0.01424 -0.306428,-0.05552 -0.419921,-0.111328 -0.191807,-0.09432 -0.187179,-0.108271 -0.275391,-0.185547 -0.118193,-0.103541 -0.166496,-0.164316 -0.253906,-0.265625 -0.158644,-0.18386 -0.33113,-0.409119 -0.542969,-0.695312 -0.423374,-0.571978 -0.971209,-1.357315 -1.554687,-2.242188 -0.426332,-0.646551 -0.790234,-1.174334 -1.142578,-1.685547 l -0.332032,-0.480468 -0.310546,0.494141 c -0.270119,0.429213 -0.529006,0.823444 -0.84961,1.384765 -0.513898,0.899748 -1.035375,1.788773 -1.466797,2.503907 -0.434215,0.719766 -0.701053,1.169294 -0.960937,1.509764 -0.12513,0.163936 -0.20208,0.268254 -0.339844,0.416016 -0.105843,0.113524 -0.09079,0.133853 -0.320312,0.267579 -0.122863,0.07159 -0.233159,0.138019 -0.515626,0.15039 -0.204626,0.0089 -0.668594,-0.168033 -0.820312,-0.322265 -0.22544,-0.229179 -0.285823,-0.371863 -0.308594,-0.460938 -0.02277,-0.08907 -0.0042,-0.120255 -0.01367,-0.291015 -0.008,-0.142993 0.0017,-0.205183 0.01172,-0.308594 0.01774,-0.184766 0.04395,-0.360999 0.08203,-0.601563 0.157635,-0.995545 0.36449,-2.545099 0.529297,-3.912109 0.0824,-0.683496 0.15593,-1.321999 0.207031,-1.824219 0.03078,-0.302521 0.03485,-0.391451 0.04688,-0.556641 l 0.01562,-0.214844 -0.175781,-0.126953 c 1.17e-4,8.4e-5 0.0023,0.0025 0.01367,0.01172 0.01137,0.0092 0.04638,0.04314 0.03711,0.0332 -0.01825,-0.01959 -0.06096,-0.05279 -0.07227,-0.06055 h -0.002 c -0.400631,-0.27068 -1.177819,-0.679073 -2.413992,-1.26172 l -5.714845,-2.695313 5.775391,-1.757812 c 1.54062,-0.468605 2.759109,-0.843135 3.136719,-0.960938 l -0.324219,-0.326172 c 0.103664,-0.02059 0.210937,-0.04102 0.210937,-0.04102 0,0 0.333964,0.191442 0.333985,0.191406 4.1e-5,-7.3e-5 0.02339,-0.0526 0.02344,-0.05273 5.2e-5,-1.35e-4 0.0061,-0.01991 0.0078,-0.02539 l 0.222656,-0.699219 -0.125,0.03906 c 0.02362,-0.168899 0.04593,-0.321943 0.07422,-0.541015 0.09175,-0.71047 0.209403,-1.673349 0.347656,-2.804688 0.276528,-2.262851 0.626094,-5.196471 0.968751,-8.121093 0.342662,-2.924672 0.6795,-5.839553 0.929687,-8.072266 0.125055,-1.116018 0.230624,-2.061878 0.302734,-2.75 0.03614,-0.345048 0.06159,-0.625654 0.08008,-0.824219 0.01006,-0.107962 0.01784,-0.216918 0.02148,-0.273437 6.7e-4,-0.01038 0.0015,-0.014 0.002,-0.01953 h 0.0039 c 0,-0.213632 0.0028,-0.370229 0.01758,-0.53711 0.0089,-0.101543 0.0073,-0.135115 0.04883,-0.291016 0.03017,-0.113288 0.02224,-0.137872 0.134765,-0.318359 0.07548,-0.121074 0.413284,-0.506524 0.914063,-0.503905 z m -0.0039,0.671874 c -0.184738,-9.61e-4 -0.30095,0.127069 -0.339844,0.189453 -0.03889,0.06239 -0.0478,0.0996 -0.05664,0.132813 -0.01769,0.06643 -0.02193,0.116572 -0.02734,0.177734 -0.01082,0.122324 -0.01563,0.277414 -0.01563,0.478516 0,-0.0055 -0.0082,0.148192 -0.02734,0.353515 -0.01912,0.205325 -0.04781,0.486837 -0.08398,0.832032 -0.07235,0.690387 -0.17558,1.636583 -0.300781,2.753906 -0.250404,2.234645 -0.586936,5.154639 -0.929688,8.080078 -0.342752,2.92544 -0.691999,5.856426 -0.96875,8.121094 -0.138374,1.132333 -0.25948,2.097549 -0.351563,2.810547 -0.09208,0.712997 -0.161734,1.209409 -0.175781,1.277343 -0.03317,0.160415 -0.106413,0.331348 -0.18164,0.451172 -0.07523,0.119823 -0.170788,0.173363 -0.125001,0.158203 -0.184879,0.0612 -1.81622,0.560889 -3.548828,1.087891 l -4.105468,1.248047 4.136719,1.951172 c 1.245167,0.586885 2.045692,1.004762 2.503906,1.314453 0.229108,0.154846 0.370461,0.281538 0.439453,0.36914 0.06899,0.0876 0.07031,0.117939 0.07031,0.154297 0,0.109426 -0.03028,0.505051 -0.08203,1.013673 -0.05176,0.50862 -0.124272,1.151431 -0.207032,1.83789 -0.165519,1.372916 -0.370984,2.923377 -0.53125,3.935547 -0.03754,0.237087 -0.0662,0.41797 -0.08008,0.562499 -0.0069,0.07227 -0.01181,0.135614 -0.0078,0.207032 0.0039,0.07141 -0.01788,0.169143 0.128907,0.318359 0.07339,0.07461 0.211937,0.1255 0.3125,0.121094 0.100562,-0.0044 0.161647,-0.03525 0.205078,-0.06055 0.08686,-0.05061 0.123645,-0.09504 0.167968,-0.142578 0.08865,-0.09508 0.177933,-0.21331 0.296876,-0.36914 0.17513,-0.229436 0.491952,-0.737853 0.919921,-1.447266 0.427971,-0.709414 0.947748,-1.595148 1.458985,-2.490234 0.505716,-0.885427 0.99328,-1.674291 1.365234,-2.222657 0.150772,-0.22228 0.263086,-0.370377 0.365235,-0.5 0.129843,0.172224 0.303082,0.406099 0.507812,0.697266 0.420333,0.597797 0.967878,1.406201 1.541016,2.27539 0.578084,0.876694 1.121201,1.658233 1.533203,2.214845 0.206,0.278305 0.377977,0.498986 0.513671,0.656249 0.06785,0.07863 0.123468,0.139218 0.187501,0.195313 0.03201,0.02805 0.06036,0.05613 0.128906,0.08984 0.03427,0.01685 0.08151,0.03806 0.164062,0.04297 0.08255,0.0049 0.219215,-0.02976 0.304687,-0.115234 0.156909,-0.15691 0.118849,-0.218934 0.126953,-0.277344 0.0081,-0.05841 0.01125,-0.109512 0.01172,-0.169922 9.33e-4,-0.120817 -0.0078,-0.268967 -0.02148,-0.449218 -0.02738,-0.360501 -0.08052,-0.847509 -0.154297,-1.419923 -0.147554,-1.144825 -0.374301,-2.63075 -0.634766,-4.076171 -0.04637,-0.257329 -0.06646,-0.418083 -0.05469,-0.498048 0.01178,-0.07996 0.02236,-0.117852 0.166016,-0.240233 0.287309,-0.244762 1.08688,-0.646488 2.666016,-1.394532 0.878141,-0.415979 1.67752,-0.809397 2.259765,-1.109375 0.291124,-0.149989 0.526816,-0.275657 0.697266,-0.373046 0.08523,-0.0487 0.153422,-0.08812 0.210937,-0.126954 0.02876,-0.01942 0.05295,-0.0374 0.08594,-0.06641 0.0165,-0.0145 0.03564,-0.03189 0.0625,-0.06641 0.01343,-0.01726 0.02958,-0.03797 0.04688,-0.07422 0.0087,-0.01812 0.02522,-0.06771 0.02539,-0.06836 1.74e-4,-6.48e-4 0.01367,-0.100996 0.01367,-0.101563 0,-5.66e-4 -0.01544,-0.106805 -0.01563,-0.107421 -1.77e-4,-6.17e-4 -0.02038,-0.05567 -0.03125,-0.07617 -0.02175,-0.04101 -0.04327,-0.0652 -0.06055,-0.08398 -0.03455,-0.03756 -0.05629,-0.05469 -0.07617,-0.06836 -0.03976,-0.02735 -0.06664,-0.04152 -0.09766,-0.05664 -0.06203,-0.03024 -0.131191,-0.05805 -0.21875,-0.0918 -0.17512,-0.0675 -0.418346,-0.152083 -0.714843,-0.25 -0.592996,-0.19583 -1.403671,-0.444631 -2.296875,-0.703125 -0.885505,-0.256265 -1.718084,-0.511921 -2.341798,-0.716797 -0.311854,-0.102438 -0.573031,-0.192698 -0.757812,-0.261719 -0.07048,-0.02633 -0.116484,-0.04548 -0.162109,-0.06445 -0.0074,-0.03317 -0.01421,-0.05486 -0.02344,-0.101563 -0.03415,-0.172887 -0.07841,-0.432457 -0.13086,-0.761719 -0.1049,-0.658526 -0.241504,-1.602364 -0.400391,-2.759765 -0.317773,-2.314805 -0.722317,-5.480902 -1.138671,-8.939454 -0.543969,-4.518505 -0.946064,-7.738065 -1.232423,-9.830077 -0.143179,-1.046006 -0.258068,-1.808114 -0.347656,-2.31836 -0.0448,-0.255123 -0.08291,-0.446478 -0.119141,-0.58789 -0.01811,-0.0707 -0.0341,-0.126355 -0.06055,-0.189454 -0.01322,-0.03155 -0.02677,-0.0666 -0.06445,-0.117187 -0.03768,-0.05058 -0.12199,-0.163105 -0.322265,-0.164063 z m 1.880859,0.294922 c 0.565756,1.141214 1.075201,2.149134 1.703125,3.441406 2.226549,4.582244 4.642197,9.706177 5.72461,12.222656 4.662781,10.840384 8.032597,21.088267 10.292969,30.5 -0.59271,-0.779802 -1.185812,-1.609704 -1.775391,-2.240234 -1.50711,-1.611789 -2.671309,-2.841008 -4.265625,-3.367188 -1.228216,-0.40533 -2.6745,-0.428149 -4.154297,-0.322265 -5.863264,0.419522 -12.555398,5.068974 -23.142578,14.892578 -2.603656,2.415906 -6.462319,6.260436 -8.689453,8.658203 l -0.08984,0.09766 c 0.569109,-4.756263 1.565791,-11.662792 2.546875,-16.574218 1.367735,-6.846982 3.196706,-13.27546 5.240234,-19.501953 l 7.013672,3.304687 c 1.13001,0.532609 1.783623,0.893068 2.134766,1.115235 -0.0063,0.07857 -0.0072,0.127456 -0.02344,0.287109 -0.05039,0.495234 -0.121174,1.130792 -0.203125,1.810547 -0.163902,1.359495 -0.370778,2.908297 -0.525391,3.884765 -0.03816,0.241034 -0.07128,0.43496 -0.0918,0.648438 -0.0092,0.09571 -0.02053,0.230682 -0.0098,0.423828 -1.49e-4,-0.0027 -0.02571,0.203297 0.03516,0.441407 0.06087,0.238107 0.209578,0.511337 0.503906,0.810546 0.368054,0.374154 0.899078,0.572911 1.404296,0.550781 0.42738,-0.01872 0.723163,-0.171945 0.867188,-0.255859 0.30426,-0.17727 0.449703,-0.356493 0.496094,-0.40625 0.166702,-0.178801 0.268981,-0.319751 0.388671,-0.476563 0.302187,-0.395891 0.575259,-0.859157 1.007813,-1.576172 0.435352,-0.721648 0.959672,-1.614544 1.476563,-2.519531 0.194052,-0.339754 0.353614,-0.587302 0.521485,-0.853515 0.255163,0.37187 0.505029,0.730159 0.802734,1.18164 0.589757,0.894395 1.140739,1.689077 1.576172,2.277344 0.217565,0.29393 0.40371,0.533568 0.582031,0.740235 0.08107,0.09396 0.174426,0.203488 0.330078,0.339843 0.04872,0.04267 0.18762,0.173063 0.443359,0.298829 0.110281,0.05423 0.356767,0.166314 0.712891,0.187499 0.43188,0.02569 0.988911,-0.110003 1.412109,-0.533203 0.309961,-0.309962 0.459695,-0.550196 0.517579,-0.779297 0.05788,-0.2291 0.03143,-0.422113 0.01758,-0.322266 0.02159,-0.155561 0.02275,-0.266972 0.02344,-0.355468 0.0014,-0.189414 -0.0082,-0.370911 -0.02344,-0.572266 -0.03077,-0.405272 -0.08842,-0.905316 -0.164063,-1.492187 -0.136902,-1.062182 -0.350565,-2.416561 -0.583984,-3.748047 0.229594,-0.133459 0.660952,-0.378126 1.916015,-0.972657 0.890129,-0.421655 1.697322,-0.81995 2.300781,-1.130859 0.301961,-0.155571 0.55149,-0.288639 0.753907,-0.404296 0.09746,-0.05568 0.189559,-0.10851 0.300781,-0.183595 0.04537,-0.03064 0.125257,-0.08355 0.232422,-0.177734 0.04115,-0.03617 0.138067,-0.122346 0.248047,-0.263672 0.05239,-0.06732 0.1343,-0.181129 0.210937,-0.341796 0.03478,-0.07292 0.05413,-0.129499 0.07422,-0.1875 0.02009,-0.05801 0.04093,-0.124676 0.04102,-0.125 1.74e-4,-6.48e-4 0.0625,-0.475996 0.0625,-0.476563 0,-5.66e-4 -0.07014,-0.501337 -0.07031,-0.501953 v -0.002 -0.002 c -8.9e-5,-3.09e-4 -0.02773,-0.0773 -0.05273,-0.142578 -0.025,-0.06527 -0.04773,-0.131527 -0.08984,-0.210938 -0.09698,-0.182825 -0.202416,-0.309496 -0.273438,-0.386719 -0.144306,-0.156903 -0.272777,-0.243299 -0.322266,-0.277343 -0.136561,-0.09395 -0.23619,-0.141146 -0.283202,-0.164063 -0.125678,-0.06126 -0.226592,-0.101933 -0.332032,-0.142578 -0.214811,-0.08281 -0.470464,-0.169495 -0.779297,-0.271484 -0.618529,-0.204265 -1.442334,-0.458136 -2.349609,-0.720704 -0.870883,-0.252032 -1.690221,-0.505777 -2.291015,-0.703125 -0.04028,-0.01323 -0.06589,-0.02232 -0.09766,-0.0332 -6.26e-4,-0.0038 -0.0013,-0.0056 -0.002,-0.0098 C 55.321853,40.137493 55.185337,39.196197 55.027274,38.044801 54.711113,35.74174 54.304155,32.582642 53.888602,29.130738 53.344271,24.609226 52.9449,21.386484 52.65618,19.277223 52.511845,18.222771 52.396656,17.450634 52.300711,16.904176 52.265361,16.702855 52.229201,16.549358 52.193289,16.390504 Z M 48.4375,17.074219 h 0.164062 c -0.0785,0.01944 -0.158212,0.03902 -0.158202,0.03906 6.1e-5,2.5e-4 -0.0029,-0.02149 -0.0059,-0.03906 z m 0.363282,0 h 0.04297 c 0.04189,0.07499 0.158203,0.283203 0.158203,0.283203 l -0.162109,0.04687 -0.123047,-0.01172 c 0,0 0.06336,-0.241072 0.08398,-0.318359 z m 0.09961,0 h 0.294921 c -3.47e-4,0.003 -3.51e-4,0.0047 -0.002,0.01367 -0.0011,0.0062 -0.0059,0.03147 -0.0059,0.03125 2.8e-5,-1.09e-4 -0.01175,0.03133 -0.01172,0.03125 2.7e-5,-7.7e-5 -0.03322,0.07036 -0.0332,0.07031 0,0 -0.148305,-0.08939 -0.242187,-0.146484 z m 1.521484,2.220703 c 0.01676,0.120223 0.02534,0.154363 0.04297,0.283203 0.285107,2.082878 0.684746,5.299548 1.228515,9.816406 0.416779,3.462078 0.823942,6.632036 1.142578,8.953125 0.159319,1.160545 0.297794,2.108752 0.404298,2.777344 0.05325,0.334296 0.09908,0.598554 0.136718,0.789062 0.01882,0.09526 0.03369,0.169841 0.05078,0.234375 0.0086,0.03227 0.01629,0.06099 0.0293,0.0957 0.01301,0.03471 -0.01237,0.06657 0.126953,0.185546 0.103988,0.08879 0.137111,0.08648 0.207032,0.117188 0.06992,0.03071 0.155257,0.06399 0.255859,0.101562 0.201205,0.07515 0.467232,0.169007 0.785157,0.273438 0.635849,0.208864 1.47388,0.466087 2.367187,0.72461 0.885606,0.256295 1.69208,0.50397 2.271484,0.695311 0.08456,0.02793 0.122811,0.04494 0.197266,0.07031 -0.08665,0.04579 -0.136715,0.07463 -0.238281,0.126953 -0.570909,0.294139 -1.362661,0.684722 -2.234375,1.097657 -1.579638,0.748282 -2.369465,1.106513 -2.835938,1.503906 -0.233236,0.198697 -0.391194,0.451473 -0.429688,0.712891 -0.03849,0.261417 0.01169,0.489746 0.05859,0.749999 0.258077,1.432165 0.483447,2.906574 0.628907,4.035157 0.04492,0.348553 0.06588,0.583643 0.09375,0.853515 -0.397081,-0.538054 -0.92043,-1.29029 -1.482422,-2.142578 -0.576827,-0.874785 -1.128107,-1.686285 -1.554688,-2.292968 -0.21329,-0.303342 -0.394983,-0.554909 -0.535156,-0.740235 -0.07009,-0.09267 -0.128571,-0.169611 -0.179687,-0.230469 -0.05111,-0.06086 -0.04511,-0.08701 -0.185547,-0.173828 -0.152854,-0.09448 -0.311151,-0.05791 -0.384766,-0.02734 -0.07362,0.03057 -0.113119,0.06302 -0.150391,0.09375 -0.07455,0.06146 -0.131471,0.128099 -0.201171,0.210937 -0.139402,0.165677 -0.30757,0.39311 -0.501954,0.679688 -0.38877,0.573156 -0.880809,1.373995 -1.394531,2.273438 -0.508212,0.889789 -1.027141,1.771724 -1.451172,2.474608 -0.214188,0.355044 -0.286064,0.455658 -0.439453,0.697266 0.147072,-0.991966 0.309325,-2.173621 0.449219,-3.333984 0.08318,-0.689973 0.1565,-1.335747 0.208984,-1.851563 0.05249,-0.515816 0.08398,-0.881689 0.08398,-1.091797 0,-0.219696 -0.08785,-0.442841 -0.234374,-0.628906 C 46.611278,47.22214 46.413219,47.055276 46.146484,46.875 45.613017,46.514448 44.795579,46.09614 43.539063,45.503906 l -2.330079,-1.099609 2.19336,-0.667969 c 1.733806,-0.527366 3.306055,-1.007577 3.566406,-1.09375 0.2684,-0.08886 0.40875,-0.276016 0.53711,-0.480468 0.128358,-0.204453 0.22792,-0.445235 0.281249,-0.703125 0.03866,-0.186974 0.09501,-0.617879 0.1875,-1.333985 0.09249,-0.716105 0.213066,-1.683068 0.351563,-2.816406 0.276995,-2.266676 0.625882,-5.198581 0.96875,-8.125 0.342867,-2.92642 0.679052,-5.845316 0.929688,-8.082032 0.08201,-0.731847 0.136344,-1.244299 0.197266,-1.80664 z m 9.199219,0.771484 c 0.504974,0.561985 1.043762,0.759128 1.894531,1.033203 6.255188,2.015126 13.350533,7.614494 17.507813,13.847657 C 86.559077,46.24569 86.548716,61.724751 79,72.896484 l -1.435547,2.125 C 75.954465,65.656284 73.608948,55.672546 70.853516,47.136718 68.208782,38.943848 64.014364,29.011549 59.621095,20.066406 Z M 39.972656,20.277344 C 32.336673,35.216938 26.70391,54.187046 23.306641,76.197266 l -1.296875,-1.714844 c -3.589983,-4.754814 -5.9402,-10.901985 -6.525391,-17.078125 -1.023379,-10.800595 2.535613,-20.716123 10.128906,-28.228516 3.578725,-3.540641 8.597823,-6.716975 12.722656,-8.068359 0.742402,-0.243229 1.206944,-0.463015 1.636719,-0.830078 z m 21.210938,1.476562 0.402343,0.84961 c 3.893903,8.209365 7.52435,16.947511 9.906251,24.326172 2.517914,7.80004 4.670156,16.775979 6.267578,25.419922 l 0.171874,0.92578 0.525391,-0.779297 C 85.829625,61.563326 85.838546,46.373985 78.464843,35.31836 74.561168,29.465434 67.940905,24.222386 62.064453,22.076172 Z m -22.703125,0.123047 -0.902344,0.34375 c -3.801906,1.452852 -8.251089,4.226985 -11.492188,7.433593 -7.456424,7.376982 -10.937394,17.070955 -9.93164,27.685548 0.561789,5.929159 2.810677,11.829679 6.199219,16.435546 l 0.541015,0.734376 0.148438,-0.900391 C 26.272127,53.898484 31.343162,36.734216 38.064453,22.748047 Z m 20.523437,0.248047 -0.693359,0.333984 0.002,0.002 c 1.227025,2.576999 2.420887,5.084366 3.220703,6.876953 l 0.701172,-0.3125 C 61.427065,27.216007 60.23334,24.704909 59.00586,22.126953 Z m 3.701172,1.107422 c 5.454206,2.262465 11.520056,7.116455 15.121094,12.515625 7.008904,10.50867 7.121162,24.871858 0.474609,35.46289 C 76.719042,62.848975 74.65925,54.235428 72.224609,46.69336 69.918951,39.550872 66.439733,31.186081 62.705078,23.232422 Z M 36.945312,23.40625 C 30.519318,37.062897 25.642034,53.608818 22.470703,72.521484 19.471876,68.154407 17.437517,62.732258 16.919922,57.269531 15.93397,46.863929 19.324424,37.42785 26.626954,30.203125 29.52877,27.332188 33.458864,24.890334 36.945312,23.40625 Z m 1.576172,3.345703 c -8.31e-4,0.0018 -0.0011,0.004 -0.002,0.0059 -0.425066,0.912158 -0.822649,1.843689 -1.226563,2.761719 -8.83e-4,0.0021 -0.003,0.0037 -0.0039,0.0059 l 0.70703,0.302734 c 8e-4,-0.0018 0.0011,-0.004 0.002,-0.0059 H 38 c 0.269971,-0.613673 0.53992,-1.21937 0.810547,-1.826173 0.137718,-0.304294 0.272468,-0.610378 0.410156,-0.917968 8.1e-4,-0.0018 0.0011,-0.004 0.002,-0.0059 z m 12.335938,1.369141 -0.763672,0.002 c -0.04789,0.410676 -0.08271,0.725767 -0.13086,1.136719 -0.342978,2.927364 -0.691554,5.862544 -0.968749,8.130859 -0.138589,1.134078 -0.260654,2.103218 -0.353516,2.822266 -0.09343,0.723385 -0.12975,1.056272 -0.197265,1.382812 -0.0724,0.350109 -0.188483,0.639185 -0.367188,0.923829 -0.211222,0.336437 -0.288561,0.559141 -0.894531,0.759765 -0.298181,0.09869 -1.693083,0.524291 -3.166016,0.972656 l -0.951172,0.289063 0.898438,0.427734 c 1.163389,0.551141 1.989505,0.966934 2.558594,1.351563 0.30579,0.206674 0.543595,0.39243 0.763672,0.671875 0.199531,0.253359 0.382811,0.687562 0.382811,1.044921 0,0.320222 -0.03804,0.629813 -0.0918,1.158203 -0.0055,0.05415 -0.01599,0.149719 -0.02344,0.220703 l 0.708984,0.240235 c 0.24961,-0.405881 0.525472,-0.881994 0.716798,-1.164063 0.202502,-0.298546 0.372757,-0.534035 0.542969,-0.736328 0.09358,-0.111221 0.143928,-0.177212 0.289061,-0.296875 0.09275,-0.07647 0.125748,-0.113711 0.322266,-0.195313 0.155622,-0.06462 0.583247,-0.177806 0.994141,0.07617 0.224685,0.138888 0.289288,0.207602 0.273438,0.187499 0.01464,0.03299 0.03111,0.07796 0.07227,0.126954 0.06388,0.07606 0.127665,0.158045 0.203125,0.257812 0.149043,0.197055 0.333026,0.450901 0.548828,0.757812 0.119974,0.170628 0.307442,0.45624 0.457031,0.673829 l 0.697266,-0.283203 c -0.01851,-0.105374 -0.02848,-0.203343 -0.05273,-0.337891 -0.05307,-0.294496 -0.126043,-0.521979 -0.06055,-0.966797 0.0555,-0.376884 0.379948,-0.891858 0.658203,-1.128906 0.655184,-0.558158 1.395706,-0.84705 2.984375,-1.599609 0.04633,-0.02195 0.06457,-0.03282 0.08594,-0.04297 l 0.914063,-0.433594 -0.972656,-0.283203 c -0.868239,-0.252214 -1.687695,-0.501796 -2.3125,-0.707031 -0.323611,-0.1063 -0.594759,-0.200645 -0.810547,-0.28125 -0.108826,-0.04064 -0.200165,-0.07534 -0.291016,-0.115234 -0.230355,-0.10117 -0.05587,0.04788 -0.374999,-0.22461 -0.233045,-0.199013 -0.28911,-0.297335 -0.289063,-0.296875 8.35e-4,-0.01836 0.007,-0.06524 -0.0293,-0.162109 -0.02915,-0.07779 -0.0373,-0.107307 -0.05078,-0.158203 -0.02455,-0.09266 -0.04166,-0.173788 -0.0625,-0.279297 -0.04068,-0.205907 -0.08657,-0.473152 -0.140625,-0.8125 -0.107968,-0.677781 -0.244624,-1.629838 -0.404297,-2.792969 -0.31939,-2.32657 -0.727379,-5.497712 -1.144531,-8.96289 -0.07525,-0.625079 -0.09862,-0.782221 -0.167969,-1.353516 z m -0.369141,3.214844 c 0.329351,2.674707 0.660866,5.334179 0.917969,7.207031 0.160149,1.166598 0.300707,2.119555 0.410157,2.806641 0.05465,0.343082 0.100359,0.62018 0.144531,0.843749 0.02158,0.109228 0.04151,0.208144 0.07227,0.324219 0.01417,0.05348 0.03553,0.129148 0.07422,0.232422 -0.0244,-0.0651 -0.01685,-0.08691 -0.01367,-0.03711 0.0032,0.0498 0.01736,0.146885 0.05664,0.236328 0.07856,0.178887 0.219526,0.33999 0.496095,0.576172 0.369746,0.315706 0.59629,0.356874 0.566406,0.343749 0.109621,0.04814 0.213163,0.08792 0.328125,0.13086 0.231792,0.08658 0.512875,0.182973 0.841797,0.291015 0.395962,0.130066 0.94396,0.290398 1.451171,0.44336 -0.958409,0.445223 -1.821207,0.804909 -2.410156,1.306641 -0.434567,0.370212 -0.824953,0.956618 -0.919922,1.601562 -0.0076,0.05173 0.01054,0.06043 0.0059,0.109375 -0.07119,-0.09748 -0.161217,-0.225408 -0.222657,-0.306641 -0.07355,-0.09725 -0.13957,-0.183425 -0.21289,-0.271484 -0.01545,-0.03415 -0.03311,-0.07624 -0.07031,-0.123046 -0.09819,-0.123514 -0.216895,-0.208343 -0.470704,-0.365235 -0.68913,-0.425953 -1.380943,-0.262207 -1.697266,-0.13086 -0.275426,0.114366 -0.438862,0.248867 -0.513671,0.310548 -0.189979,0.156636 -0.300875,0.287865 -0.390626,0.394531 -0.173365,0.20604 -0.339346,0.444918 -0.51953,0.70703 -0.02092,-0.555106 -0.229003,-1.07979 -0.521485,-1.451171 -0.286236,-0.363453 -0.606348,-0.610169 -0.9375,-0.833985 -0.43942,-0.296988 -1.151825,-0.633866 -1.824219,-0.966797 0.966496,-0.295116 2.043927,-0.624601 2.292969,-0.70703 0.794841,-0.263155 1.113078,-0.772927 1.304687,-1.078126 0.224127,-0.35699 0.382966,-0.745955 0.472657,-1.179687 0.07749,-0.374762 0.11243,-0.722083 0.205077,-1.439454 0.09321,-0.721706 0.212819,-1.690812 0.351563,-2.826171 0.209768,-1.716538 0.474503,-3.962518 0.732422,-6.148437 z m 13.138672,0.990234 -0.707031,0.298828 0.002,0.002 c 2.26527,5.380406 4.294711,10.660295 5.990234,15.751952 5.97e-4,0.0018 0.0013,0.004 0.002,0.0059 l 0.728516,-0.238281 c -5.07e-4,-0.0016 5.77e-4,-0.0042 0,-0.0059 -0.04991,-0.157685 -0.09781,-0.36134 -0.162109,-0.560547 -1.468248,-4.548348 -3.51978,-9.71876 -5.72461,-14.919921 -0.04903,-0.115657 -0.07776,-0.216334 -0.126953,-0.332032 h -0.002 z m -2.759766,27.154297 c -0.316075,-0.0054 -0.63724,-4.19e-4 -0.943359,0.02148 -4.414337,0.31585 -10.923475,4.424063 -21.384766,14.130859 C 36.013437,75.976314 32.140959,79.833681 30,82.138672 l -6.060547,6.525391 0.3125,-3.416016 0.002,-0.01367 -0.763673,-0.08398 c -5.79e-4,0.0045 -0.0013,0.0091 -0.002,0.01367 v 0.0059 c -0.229037,1.800455 -0.457958,3.471566 -0.662109,5.203125 -0.104331,0.884915 -0.176777,1.536788 -0.263672,2.310547 l -0.146484,1.318359 0.830078,-1.035156 c 0.571833,-0.712994 0.66451,-0.81271 1.548828,-1.919922 7.664465,-9.596459 14.796138,-17.158062 20.980469,-22.210937 2.328082,-1.90215 4.744793,-3.615426 6.927734,-4.939453 2.185988,-1.325878 4.078612,-2.261427 5.609375,-2.615235 1.301727,-0.300896 2.703104,-0.134409 4.015625,0.535156 1.322632,0.674724 2.596816,1.806409 3.964844,3.441406 2.735469,3.269294 5.858405,8.586863 10.021484,16.675781 l 0.111328,0.212891 0.722657,-0.226562 c -0.50021,-3.744491 -1.131104,-7.620361 -1.923829,-11.640625 l -0.757813,0.02539 c -0.02404,0.190615 0.01038,0.169285 -0.07227,0.314454 -0.103841,0.18244 -0.569759,0.497741 -0.779297,0.527344 -0.334517,0.04726 -0.482287,0.0086 -0.552734,-0.02148 -0.07044,-0.03009 -0.05968,-0.05167 -0.21875,-0.158203 -0.227441,-0.152332 -0.203368,-0.160852 -0.316407,-0.283204 -0.160391,-0.173601 -0.321438,-0.378384 -0.531249,-0.652343 -0.416565,-0.543924 -0.970116,-1.315848 -1.580078,-2.21289 -1.402852,-2.063116 -2.982795,-4.035945 -4.382813,-5.533204 -0.707804,-0.756966 -1.426524,-1.386455 -1.980469,-1.832031 -0.276972,-0.222788 -0.51306,-0.398773 -0.6875,-0.523438 -0.08722,-0.06233 -0.158809,-0.111745 -0.214843,-0.148437 -0.02801,-0.01834 -0.05133,-0.03328 -0.07422,-0.04687 -0.02288,-0.01359 -0.01446,-0.02011 -0.107422,-0.05078 -0.134078,-0.04425 -0.259826,-0.06107 -0.460938,-0.08789 -0.201111,-0.02681 -0.451605,-0.05117 -0.732421,-0.07227 -0.280817,-0.0211 -0.592128,-0.0376 -0.908204,-0.04297 z m -0.01172,0.767578 c 0.298263,0.0051 0.594025,0.02093 0.861329,0.04102 0.267303,0.02008 0.506512,0.04396 0.689453,0.06836 0.169148,0.02255 0.287872,0.0493 0.298828,0.05078 0.0082,0.0051 0.01171,0.0079 0.02344,0.01563 0.04351,0.02849 0.108838,0.07325 0.189454,0.130859 0.161231,0.115226 0.386687,0.284362 0.652344,0.498048 0.531311,0.427368 1.222836,1.035285 1.898437,1.757812 1.366792,1.461725 2.93252,3.411926 4.3125,5.441407 0.616081,0.90604 1.17321,1.68618 1.603515,2.248046 0.213625,0.278936 0.391364,0.502775 0.580079,0.707032 0.06151,0.06658 0.170455,0.208469 0.451172,0.396484 -0.03203,-0.02145 0.117408,0.131848 0.34375,0.228515 0.226341,0.09667 0.535061,0.136614 0.96289,0.07617 0.368243,-0.05203 0.618692,-0.35364 0.892578,-0.605469 0.559879,2.913519 0.998545,5.714874 1.400391,8.480469 -3.641617,-6.952664 -6.569644,-11.951873 -9.134766,-15.017578 -1.406333,-1.680779 -2.74899,-2.891005 -4.203125,-3.632813 -1.127789,-0.575326 -2.321484,-0.722928 -3.492187,-0.65039 0.243713,-0.04059 0.567933,-0.198602 0.794922,-0.214844 0.276355,-0.01977 0.576737,-0.02462 0.874999,-0.01953 z m -1.468749,2.328125 c 0.24866,-0.01429 0.498027,-0.0054 0.748047,0.02734 0.500039,0.06549 1.006843,0.228497 1.539062,0.5 1.064439,0.54301 2.219675,1.537846 3.511719,3.082032 2.227681,2.662413 4.991128,7.338578 8.328125,13.628906 -0.189974,0.02124 -0.364071,0.07858 -0.560547,0.1875 -0.44553,0.246979 -1.032174,0.69937 -1.919922,1.43164 -2.742478,2.262175 -8.560833,5.17405 -12.246093,6.121095 -3.845453,0.98821 -11.248526,1.21994 -15.214844,0.474609 -3.192489,-0.599918 -7.374677,-2.028929 -9.566407,-3.253906 L 32.722655,84.05859 c 4.996873,-5.676809 9.784719,-10.692071 13.964844,-14.107421 2.277122,-1.860513 4.648747,-3.537537 6.763672,-4.820313 2.114926,-1.282776 3.986885,-2.168263 5.185546,-2.445312 0.251725,-0.05819 0.50134,-0.09508 0.750001,-0.109375 z m 0.0332,0.669922 c -0.208707,0.01247 -0.418652,0.04469 -0.63086,0.09375 -1.065122,0.246184 -2.901645,1.099618 -4.988281,2.365234 -2.083375,1.26364 -4.435947,2.926359 -6.689453,4.767578 -3.912469,3.196661 -8.369903,7.820774 -13.027344,13.039063 l -0.320312,0.359375 0.570313,0.316406 c 2.07832,1.161592 6.248203,2.592732 9.361327,3.177734 3.808028,0.715587 11.238876,0.484074 14.923828,-0.46289 3.543036,-0.910496 9.371857,-3.833648 11.986328,-5.990235 0.727532,-0.600112 1.179896,-0.920852 1.658204,-1.226562 l 0.300781,-0.193359 -0.167969,-0.314453 c -3.071308,-5.714665 -5.668957,-10.1014 -7.726562,-12.560547 -1.257923,-1.503404 -2.35368,-2.431869 -3.302735,-2.916016 -0.466556,-0.238008 -0.898508,-0.378399 -1.320312,-0.433594 -0.210903,-0.0276 -0.418246,-0.03396 -0.626953,-0.02148 z m 0.05078,0.761719 c 0.487036,-0.0386 0.931377,0.06297 1.546875,0.376952 0.804725,0.410521 1.846497,1.271305 3.0625,2.72461 1.933833,2.31122 4.490108,6.605702 7.476563,12.144532 -0.418689,0.279414 -0.821355,0.556558 -1.439454,1.066406 -2.438063,2.011073 -8.340727,4.977328 -11.689453,5.837891 -3.465075,0.890459 -10.997574,1.128166 -14.589843,0.453124 -2.899364,-0.544834 -6.815761,-1.908554 -8.826172,-2.970703 4.512685,-5.036568 8.836433,-9.507157 12.58789,-12.572266 2.226168,-1.818882 4.552752,-3.465541 6.599609,-4.707031 2.043599,-1.239513 3.903741,-2.072725 4.763673,-2.271484 0.179841,-0.04157 0.345466,-0.06916 0.507812,-0.08203 z m -25.734375,15.49414 c -3.081447,3.353367 -6.234973,6.922606 -9.542969,11.064453 -0.408608,0.511599 -0.520887,0.64729 -0.716796,0.888672 0.03616,-0.322125 0.06662,-0.613028 0.111327,-0.992188 0.01321,-0.11203 0.02955,-0.226271 0.04297,-0.33789 L 30.5625,82.660157 c 0.790477,-0.851041 2.055946,-2.0283 3.173828,-3.158204 z m -9.552734,0.275391 c -0.01214,0.08572 -0.03218,0.182259 -0.04883,0.300781 -0.006,0.04282 -0.01141,0.08931 -0.01367,0.105469 h 0.002 c -3.38e-4,0.0028 -0.0016,0.0032 -0.002,0.0059 l 0.761719,0.09766 c 4.23e-4,-0.003 -4.1e-4,-0.0028 0,-0.0059 8.26e-4,-0.0069 0.0047,-0.02528 0.0059,-0.0332 0.0082,-0.05898 0.02093,-0.149295 0.03516,-0.238282 0.0073,-0.04194 0.01453,-0.07398 0.02148,-0.123046 h -0.002 c 3.51e-4,-0.0028 0.0016,-0.005 0.002,-0.0078 z" id="delta" />
	</g>
	<g id="g312">
		<path d="m 50.594153,0.9999997 c -0.758371,0 -6.668402,8.754233 -9.711178,14.3848113 -1.264642,2.340184 -1.441275,2.513349 -3.133435,3.067729 -4.374965,1.433333 -9.620778,4.758344 -13.39105,8.488444 -7.979939,7.894918 -11.728394,18.340632 -10.653403,29.686049 0.615874,6.499971 3.083693,12.957161 6.867396,17.968628 l 1.473445,1.951135 -0.723821,5.274126 C 20.401078,88.532853 19.572752,96.036274 19.568611,97.705984 19.566011,98.417693 19.628861,99 19.706605,99 c 0.07775,0 2.07581,-2.445693 4.440081,-5.434868 2.364245,-2.989175 5.020938,-6.237226 5.903949,-7.218186 l 1.605409,-1.783819 1.518424,0.84869 c 2.351694,1.314382 6.701271,2.794706 10.072105,3.428134 4.226724,0.794265 11.899205,0.554882 16.001832,-0.49941 3.924208,-1.00845 9.9595,-4.026104 12.894174,-6.44683 1.836105,-1.514545 2.438289,-1.84805 2.672946,-1.482053 0.166539,0.259803 1.426497,2.762358 2.799811,5.561742 1.373313,2.799384 2.616009,5.090135 2.761922,5.090135 0.460385,0 0.292681,-2.529028 -0.612639,-9.233513 L 78.886629,75.32759 80.50666,72.929615 C 88.455026,61.166442 88.466051,44.899281 80.53345,33.005674 76.154085,26.439522 68.737456,20.576492 62.109893,18.44142 60.318302,17.864257 60.306448,17.851019 58.349171,14.175716 55.102355,8.0788877 50.935778,0.9999997 50.594157,0.9999997 Z m -0.0207,0.30834 2.522814,4.24549 c 6.614856,11.1326423 14.16231,27.8974073 18.223399,40.4779373 4.193208,12.989797 7.617304,29.333732 8.783136,41.926128 l 0.207249,2.242795 -3.906842,-7.591733 C 67.768626,65.831842 63.430152,60.647068 58.903165,61.69341 c -2.672506,0.617704 -7.829057,3.745328 -12.594919,7.639246 -6.337186,5.17776 -13.720067,12.995839 -21.661134,22.93846 -4.666948,5.843257 -4.736799,5.925955 -4.736799,5.580445 0,-1.149896 1.258975,-11.828492 2.102259,-17.830636 C 26.656745,46.966632 36.124519,20.313069 49.444709,2.7934297 Z m -0.0075,5.50816 c -0.333624,-0.0575 -0.801436,0.61165 -2.245843,2.856443 C 38.662012,24.68305 31.747928,42.481955 27.695716,62.767544 26.465106,68.928118 24.942515,78.843047 24.521338,83.43895 l -0.234035,2.555175 4.109019,-4.423918 c 2.259974,-2.433129 6.282786,-6.441039 8.939815,-8.906471 C 48.266098,62.52201 55.116361,58.041463 60.25389,57.673872 c 1.363894,-0.09758 2.868446,0.0037 3.590896,0.24212 1.618944,0.534305 5.327957,4.500985 8.311518,8.888782 1.251443,1.84043 2.27514,3.177165 2.27514,2.970676 0,-0.206491 -0.303318,-1.850927 -0.674312,-3.65408 C 71.474694,55.028581 67.396731,42.567947 61.762222,29.468359 59.440679,24.07105 51.730593,8.2036907 50.885911,7.0849097 c -0.112579,-0.14911 -0.20875,-0.24924 -0.319958,-0.26841 z m -0.234036,7.2004973 c 0.163331,7.76e-4 0.704851,3.986799 1.83639,13.38599 0.866681,7.199317 1.688562,13.185993 1.826271,13.3036 0.137735,0.117606 1.76421,0.651843 3.614654,1.187361 1.850443,0.535521 3.364442,1.035545 3.364442,1.111035 0,0.07549 -1.489024,0.842676 -3.309343,1.704967 -3.285973,1.556578 -3.308282,1.575887 -3.114231,2.652734 0.539423,2.993463 0.947375,6.158601 0.811296,6.294683 -0.08411,0.08412 -1.131954,-1.331375 -2.32822,-3.145573 -1.196266,-1.814198 -2.289995,-3.369691 -2.430344,-3.456439 -0.140349,-0.08674 -1.122637,1.361616 -2.183135,3.218361 -1.060498,1.856745 -2.160748,3.680521 -2.444992,4.052898 -0.489681,0.641545 -0.508108,0.622543 -0.3528,-0.358381 0.336573,-2.125654 0.858787,-6.457853 0.858787,-7.122651 0,-0.532731 -0.762021,-1.047535 -3.364443,-2.274133 l -3.364442,-1.585674 3.278002,-0.997301 c 1.803005,-0.548412 3.467989,-1.05966 3.699567,-1.13631 0.231577,-0.07665 0.494366,-0.495427 0.584351,-0.930579 0.21931,-1.060692 2.962573,-24.474757 2.962573,-25.285888 0,-0.406691 0.01786,-0.6189 0.05562,-0.6187 z" id="delta-filled" />
	</g>
</svg>
